<svg width="50" height="50" viewBox="0 0 50 50" fill="none" xmlns="http://www.w3.org/2000/svg">
<path d="M34.275 15.725C34.0426 15.4907 33.7661 15.3047 33.4614 15.1778C33.1568 15.0509 32.83 14.9855 32.5 14.9855C32.17 14.9855 31.8432 15.0509 31.5386 15.1778C31.2339 15.3047 30.9574 15.4907 30.725 15.725L25 21.475L19.275 15.725C18.8042 15.2542 18.1658 14.9898 17.5 14.9898C16.8342 14.9898 16.1958 15.2542 15.725 15.725C15.2542 16.1958 14.9898 16.8342 14.9898 17.5C14.9898 18.1658 15.2542 18.8042 15.725 19.275L21.475 25L15.725 30.725C15.4907 30.9574 15.3047 31.2339 15.1778 31.5386C15.0509 31.8432 14.9855 32.17 14.9855 32.5C14.9855 32.83 15.0509 33.1568 15.1778 33.4614C15.3047 33.7661 15.4907 34.0426 15.725 34.275C15.9574 34.5093 16.2339 34.6953 16.5386 34.8222C16.8432 34.9491 17.17 35.0145 17.5 35.0145C17.83 35.0145 18.1568 34.9491 18.4614 34.8222C18.7661 34.6953 19.0426 34.5093 19.275 34.275L25 28.525L30.725 34.275C30.9574 34.5093 31.2339 34.6953 31.5386 34.8222C31.8432 34.9491 32.17 35.0145 32.5 35.0145C32.83 35.0145 33.1568 34.9491 33.4614 34.8222C33.7661 34.6953 34.0426 34.5093 34.275 34.275C34.5093 34.0426 34.6953 33.7661 34.8222 33.4614C34.9491 33.1568 35.0145 32.83 35.0145 32.5C35.0145 32.17 34.9491 31.8432 34.8222 31.5386C34.6953 31.2339 34.5093 30.9574 34.275 30.725L28.525 25L34.275 19.275C34.5093 19.0426 34.6953 18.7661 34.8222 18.4614C34.9491 18.1568 35.0145 17.83 35.0145 17.5C35.0145 17.17 34.9491 16.8432 34.8222 16.5386C34.6953 16.2339 34.5093 15.9574 34.275 15.725ZM42.5 0H7.5C5.51088 0 3.60322 0.790177 2.1967 2.1967C0.790177 3.60322 0 5.51088 0 7.5V42.5C0 44.4891 0.790177 46.3968 2.1967 47.8033C3.60322 49.2098 5.51088 50 7.5 50H42.5C44.4891 50 46.3968 49.2098 47.8033 47.8033C49.2098 46.3968 50 44.4891 50 42.5V7.5C50 5.51088 49.2098 3.60322 47.8033 2.1967C46.3968 0.790177 44.4891 0 42.5 0ZM45 42.5C45 43.163 44.7366 43.7989 44.2678 44.2678C43.7989 44.7366 43.163 45 42.5 45H7.5C6.83696 45 6.20107 44.7366 5.73223 44.2678C5.26339 43.7989 5 43.163 5 42.5V7.5C5 6.83696 5.26339 6.20107 5.73223 5.73223C6.20107 5.26339 6.83696 5 7.5 5H42.5C43.163 5 43.7989 5.26339 44.2678 5.73223C44.7366 6.20107 45 6.83696 45 7.5V42.5Z" fill="black"/>
</svg>
