<svg width="60" height="60" viewBox="0 0 60 60" fill="none" xmlns="http://www.w3.org/2000/svg">
<path opacity="0.5" d="M30 60C15.8579 60 8.78679 60 4.39341 55.6065C-4.76837e-07 51.2133 0 44.142 0 30C0 15.8579 -4.76837e-07 8.78679 4.39341 4.39341C8.78679 -4.76837e-07 15.8579 0 30 0C44.142 0 51.2133 -4.76837e-07 55.6065 4.39341C60 8.78679 60 15.8579 60 30C60 44.142 60 51.2133 55.6065 55.6065C51.2133 60 44.142 60 30 60Z" fill="#19A2DC"/>
<g filter="url(#filter0_d_115_691)">
<path d="M22.458 22.458C23.2353 21.6807 24.4955 21.6807 25.2727 22.458L30.5 27.6853L35.7273 22.458C36.5046 21.6807 37.7647 21.6807 38.542 22.458C39.3193 23.2353 39.3193 24.4956 38.542 25.2727L33.315 30.5L38.542 35.7273C39.3193 36.5044 39.3193 37.7647 38.542 38.542C37.7647 39.3193 36.5044 39.3193 35.7271 38.542L30.5 33.315L25.273 38.542C24.4956 39.3193 23.2353 39.3193 22.458 38.542C21.6807 37.7647 21.6807 36.5046 22.458 35.7273L27.6853 30.5L22.458 25.2727C21.6807 24.4955 21.6807 23.2353 22.458 22.458Z" fill="white"/>
</g>
<defs>
<filter id="filter0_d_115_691" x="17.875" y="21.875" width="25.25" height="25.25" filterUnits="userSpaceOnUse" color-interpolation-filters="sRGB">
<feFlood flood-opacity="0" result="BackgroundImageFix"/>
<feColorMatrix in="SourceAlpha" type="matrix" values="0 0 0 0 0 0 0 0 0 0 0 0 0 0 0 0 0 0 127 0" result="hardAlpha"/>
<feOffset dy="4"/>
<feGaussianBlur stdDeviation="2"/>
<feComposite in2="hardAlpha" operator="out"/>
<feColorMatrix type="matrix" values="0 0 0 0 0 0 0 0 0 0 0 0 0 0 0 0 0 0 0.25 0"/>
<feBlend mode="normal" in2="BackgroundImageFix" result="effect1_dropShadow_115_691"/>
<feBlend mode="normal" in="SourceGraphic" in2="effect1_dropShadow_115_691" result="shape"/>
</filter>
</defs>
</svg>
