<svg width="242" height="242" viewBox="0 0 242 242" fill="none" xmlns="http://www.w3.org/2000/svg">
<circle cx="121" cy="121" r="121" fill="#277782"/>
<path d="M145.012 123.877C138.566 129.642 130.395 133.113 121.5 133.113C112.605 133.113 104.434 129.642 97.9883 123.877C72.3439 133.352 54 157.767 54 186.408C54 188.273 55.5095 189.783 57.375 189.783H185.625C187.49 189.783 189 188.273 189 186.408C189 157.767 170.656 133.352 145.012 123.877Z" fill="white"/>
<path d="M152.276 89.4842C151.447 70.9745 137.981 56.1932 121.5 56.1932C105.019 56.1932 91.5529 70.9745 90.7238 89.4842C90.7526 89.4896 90.7798 89.4789 90.8086 89.485C92.2127 89.7883 93.7519 89.9415 95.3899 89.9415C104.694 89.9415 113.359 84.5346 118.577 75.4775C119.776 73.3846 123.224 73.3846 124.423 75.4775C129.641 84.5346 138.306 89.9415 147.61 89.9415C149.248 89.9415 150.787 89.7883 152.191 89.485C152.22 89.4791 152.247 89.4896 152.276 89.4842Z" fill="white"/>
<path d="M121.5 83.2327C114.961 91.7427 105.505 96.6915 95.3899 96.6915C93.862 96.6915 92.4095 96.5477 91.0022 96.3366C93.1703 113.287 106.001 126.363 121.5 126.363C136.999 126.363 149.83 113.287 151.998 96.3366C150.59 96.5477 149.138 96.6915 147.61 96.6915C137.495 96.6915 128.039 91.7427 121.5 83.2327Z" fill="white"/>
<path d="M87.9863 111.989H88.8639C85.6914 105.88 83.9025 98.7924 83.9025 91.2663C83.9025 87.0813 84.4764 83.065 85.4889 79.2513L85.5226 79.2175C86.0288 77.2599 86.67 75.4037 87.4462 73.5813C93.3189 57.3475 106.515 46.75 121.5 46.75C136.485 46.75 149.681 57.3475 155.554 73.5813C156.33 75.4037 156.971 77.2599 157.477 79.2175L157.511 79.2513C158.524 83.065 159.098 87.0813 159.098 91.2663C159.098 98.7924 157.309 105.88 154.136 111.989H155.014C164.633 111.989 172.631 105.003 174.15 95.89C175.669 96.16 176.951 96.7675 177.727 97.6113C178.099 98.0163 179.179 99.2312 178.099 102.235C175.028 111.077 165.139 115.769 157.613 117.051C155.79 117.389 154.541 119.11 154.879 120.966C155.149 122.586 156.6 123.768 158.186 123.768C158.389 123.768 158.591 123.734 158.794 123.7C168.548 122.012 180.428 116.072 184.477 104.462C186.03 100.075 185.389 96.0249 182.723 93.0887C180.664 90.8275 177.559 89.4436 174.049 89.0724C173.34 85.36 171.518 81.9174 168.75 79.0826C167.096 77.4962 165.206 76.2137 163.181 75.3024C157.241 54.1413 140.569 40 121.5 40C102.398 40 85.7587 54.175 79.8189 75.3362C77.76 76.2475 75.87 77.53 74.1825 79.1499C70.5712 82.8288 68.5801 87.655 68.5801 92.785C68.5801 103.382 77.2876 111.989 87.9863 111.989Z" fill="white"/>
</svg>
