<svg width="43" height="18" viewBox="0 0 43 18" fill="none" xmlns="http://www.w3.org/2000/svg">
<path fill-rule="evenodd" clip-rule="evenodd" d="M19.5162 13.9455V9.03126H22.1313C23.2029 9.03126 24.1074 8.68301 24.8447 7.99617L25.0217 7.82205C26.3686 6.40001 26.2801 4.18473 24.8447 2.86911C24.127 2.1726 23.1439 1.79533 22.1313 1.81467H17.9333V13.9455H19.5162ZM19.5164 7.54135V3.30427H22.1712C22.7415 3.30427 23.2823 3.51709 23.6855 3.90404C24.5409 4.71663 24.5606 6.07095 23.7346 6.91256C23.3315 7.32853 22.7612 7.5607 22.1712 7.54135H19.5164ZM32.405 6.2938C31.7266 5.68435 30.8025 5.37479 29.6326 5.37479C28.1284 5.37479 26.9978 5.91652 26.2506 6.9903L27.6467 7.85126C28.1579 7.11606 28.8559 6.74846 29.7407 6.74846C30.3011 6.74846 30.8418 6.95161 31.2646 7.31921C31.6775 7.66746 31.9134 8.1705 31.9134 8.70255V9.06048C31.3039 8.73157 30.537 8.55744 29.5932 8.55744C28.4921 8.55744 27.6073 8.80896 26.9486 9.32167C26.2899 9.83437 25.9557 10.5115 25.9557 11.3725C25.936 12.1561 26.2801 12.9009 26.8897 13.404C27.509 13.9457 28.2955 14.2166 29.2197 14.2166C30.3109 14.2166 31.1761 13.7426 31.8348 12.7945H31.9036V13.9457H33.4176V8.82831C33.4176 7.75453 33.0833 6.90324 32.405 6.2938ZM28.109 12.4174C27.7846 12.1853 27.5879 11.808 27.5879 11.4017C27.5879 10.947 27.8042 10.5698 28.227 10.2699C28.6597 9.97 29.2005 9.81522 29.8396 9.81522C30.7246 9.80554 31.4129 9.99902 31.9045 10.386C31.9045 11.0438 31.639 11.6145 31.1179 12.0982C30.6459 12.5625 30.0068 12.8237 29.3381 12.8237C28.8957 12.8334 28.463 12.6883 28.109 12.4174ZM36.8192 17.5929L42.1084 5.64588H40.388L37.94 11.6049H37.9105L35.4035 5.64588H33.6831L37.1535 13.4139L35.1872 17.5929H36.8192Z" fill="white"/>
<path d="M14.0517 7.96705C14.0517 7.49304 14.0124 7.01903 13.9337 6.55469H7.2583V9.23431H11.0827C10.9254 10.0953 10.4141 10.8692 9.66696 11.3528V13.0941H11.9478C13.2849 11.8849 14.0517 10.0953 14.0517 7.96705Z" fill="#4285F4"/>
<path d="M7.25875 14.7776C9.16601 14.7776 10.7783 14.1584 11.9482 13.0943L9.6674 11.3531C9.02837 11.7787 8.21238 12.0206 7.25875 12.0206C5.41047 12.0206 3.8473 10.792 3.28692 9.14746H0.937256V10.9468C2.13667 13.2975 4.58465 14.7776 7.25875 14.7776Z" fill="#34A853"/>
<path d="M3.28712 9.14708C2.99213 8.28612 2.99213 7.34777 3.28712 6.47714V4.6875H0.937075C-0.0757047 6.65126 -0.0757047 8.97295 0.937075 10.9367L3.28712 9.14708Z" fill="#FBBC04"/>
<path d="M7.25875 3.60411C8.27136 3.58476 9.24466 3.96204 9.97217 4.64887L11.9974 2.65609C10.7095 1.47589 9.01854 0.827753 7.25875 0.847101C4.58465 0.847101 2.13667 2.33685 0.937256 4.68757L3.28692 6.48688C3.8473 4.83267 5.41047 3.60411 7.25875 3.60411Z" fill="#EA4335"/>
</svg>
