<svg width="137" height="145" viewBox="0 0 137 145" fill="none" xmlns="http://www.w3.org/2000/svg">
<g clip-path="url(#clip0_139_512)">
<path d="M67.8204 45.9443C67.6419 45.9443 67.4708 45.8732 67.3446 45.7466C67.2184 45.6201 67.1475 45.4484 67.1475 45.2694V17.5328C67.1475 17.3538 67.2184 17.1821 67.3446 17.0556C67.4708 16.929 67.6419 16.8579 67.8204 16.8579C67.9989 16.8579 68.1701 16.929 68.2963 17.0556C68.4225 17.1821 68.4934 17.3538 68.4934 17.5328V45.2694C68.4934 45.4484 68.4225 45.6201 68.2963 45.7466C68.1701 45.8732 67.9989 45.9443 67.8204 45.9443Z" fill="#FFE7DA"/>
<path d="M67.8202 45.9444C67.6605 45.946 67.5056 45.8895 67.3843 45.7852C67.263 45.6809 67.1836 45.5361 67.1607 45.3775L62.3559 18.0593C62.3244 17.8839 62.3633 17.7032 62.4642 17.5566C62.565 17.4099 62.7196 17.3092 62.8942 17.2764C62.981 17.2589 63.0703 17.2591 63.157 17.277C63.2437 17.2948 63.3259 17.33 63.3987 17.3803C63.4715 17.4307 63.5335 17.4953 63.581 17.5702C63.6284 17.6451 63.6603 17.7288 63.6748 17.8163L68.4797 45.1481C68.4955 45.3188 68.4458 45.4892 68.3409 45.6246C68.2359 45.76 68.0834 45.8502 67.9145 45.8769L67.8202 45.9444Z" fill="#FFE7DA"/>
<path d="M67.8203 45.9444C67.6824 45.9425 67.5483 45.8989 67.4355 45.8195C67.3227 45.74 67.2363 45.6284 67.1877 45.499L57.7663 19.4225C57.7114 19.2557 57.7236 19.0739 57.8001 18.9159C57.8767 18.7579 58.0117 18.6361 58.1765 18.5764C58.3412 18.5166 58.5227 18.5236 58.6824 18.5959C58.842 18.6683 58.9673 18.8001 59.0315 18.9636L68.4528 45.0401C68.5134 45.2084 68.505 45.3938 68.4292 45.5558C68.3535 45.7178 68.2168 45.843 68.0491 45.9039C67.9759 45.9315 67.8984 45.9452 67.8203 45.9444Z" fill="#FFE7DA"/>
<path d="M67.8203 45.9443C67.7029 45.9436 67.5877 45.9121 67.4862 45.8529C67.3846 45.7937 67.3003 45.7089 67.2416 45.6069L53.4057 21.5819C53.3371 21.4297 53.3272 21.2573 53.378 21.0982C53.4288 20.9391 53.5366 20.8046 53.6807 20.7206C53.8247 20.6366 53.9946 20.6092 54.1577 20.6437C54.3207 20.6781 54.4652 20.772 54.5631 20.9071L68.3991 44.932C68.4446 45.0079 68.4745 45.0922 68.487 45.1798C68.4994 45.2675 68.4942 45.3567 68.4716 45.4423C68.449 45.5279 68.4095 45.6081 68.3554 45.6781C68.3014 45.7481 68.2338 45.8065 68.1568 45.8498C68.0564 45.9138 67.9393 45.9467 67.8203 45.9443Z" fill="#FFE7DA"/>
<path d="M67.8204 45.9444C67.7225 45.9445 67.6258 45.9227 67.5373 45.8807C67.4489 45.8387 67.3708 45.7775 67.3089 45.7014L49.516 24.4434C49.4583 24.3766 49.4145 24.2988 49.3873 24.2148C49.36 24.1307 49.3499 24.042 49.3574 23.9539C49.3649 23.8658 49.39 23.7802 49.4311 23.702C49.4722 23.6238 49.5285 23.5546 49.5968 23.4986C49.7351 23.3844 49.9124 23.3289 50.091 23.344C50.2696 23.3591 50.4351 23.4437 50.5523 23.5796L68.3318 44.8376C68.4134 44.9358 68.4654 45.0552 68.482 45.1819C68.4985 45.3086 68.4789 45.4374 68.4253 45.5533C68.3717 45.6692 68.2864 45.7675 68.1794 45.8368C68.0723 45.906 67.9478 45.9433 67.8204 45.9444Z" fill="#FFE7DA"/>
<path d="M67.8203 45.9443C67.662 45.9439 67.5092 45.8864 67.3897 45.7823L46.1916 27.9391C46.0961 27.8946 46.0124 27.8282 45.9472 27.7453C45.882 27.6624 45.837 27.5653 45.816 27.4619C45.795 27.3584 45.7985 27.2514 45.8262 27.1496C45.8539 27.0477 45.9051 26.9538 45.9756 26.8754C46.0461 26.7969 46.134 26.7362 46.2321 26.698C46.3303 26.6598 46.436 26.6453 46.5408 26.6555C46.6456 26.6658 46.7465 26.7006 46.8355 26.7571C46.9244 26.8135 46.9989 26.8902 47.053 26.9808L68.251 44.7565C68.3552 44.8458 68.4296 44.9649 68.4645 45.0977C68.4994 45.2306 68.493 45.371 68.4461 45.5001C68.3993 45.6292 68.3143 45.7409 68.2025 45.8203C68.0907 45.8997 67.9573 45.9429 67.8203 45.9443Z" fill="#FFE7DA"/>
<path d="M67.8203 45.9443C67.7015 45.9451 67.5849 45.9123 67.4838 45.8498L43.5266 31.9747C43.3716 31.8868 43.2576 31.7408 43.2096 31.5688C43.1617 31.3967 43.1837 31.2127 43.2709 31.0569C43.3635 30.903 43.5115 30.7907 43.6843 30.743C43.857 30.6952 44.0415 30.7158 44.1996 30.8004L68.1568 44.6755C68.3105 44.7682 68.4219 44.9176 68.4672 45.0917C68.5125 45.2657 68.488 45.4506 68.399 45.6068C68.3403 45.7088 68.256 45.7936 68.1545 45.8528C68.0529 45.912 67.9377 45.9435 67.8203 45.9443Z" fill="#FFE7DA"/>
<path d="M67.8204 45.9443C67.7447 45.9571 67.6673 45.9571 67.5916 45.9443L41.5886 36.4288C41.4231 36.365 41.2886 36.2394 41.2133 36.0784C41.1381 35.9174 41.1279 35.7334 41.1849 35.565C41.2134 35.4806 41.2586 35.4029 41.3179 35.3365C41.3771 35.27 41.4491 35.2163 41.5295 35.1785C41.61 35.1407 41.6972 35.1195 41.786 35.1164C41.8748 35.1132 41.9633 35.1281 42.0462 35.1601L68.0492 44.6081C68.1333 44.6367 68.2109 44.6821 68.2771 44.7414C68.3433 44.8008 68.3969 44.8731 68.4346 44.9537C68.4723 45.0344 68.4934 45.1219 68.4965 45.2109C68.4997 45.3 68.4849 45.3887 68.453 45.4719C68.4087 45.6063 68.3243 45.7238 68.2111 45.8083C68.0979 45.8928 67.9615 45.9403 67.8204 45.9443Z" fill="#FFE7DA"/>
<path d="M67.8204 45.9443H67.6992L40.458 41.1123C40.3704 41.0976 40.2865 41.0657 40.2112 41.0183C40.1359 40.9709 40.0707 40.909 40.0194 40.8362C39.9681 40.7635 39.9317 40.6812 39.9123 40.5942C39.8928 40.5072 39.8908 40.4173 39.9062 40.3295C39.9207 40.242 39.9527 40.1583 40.0001 40.0834C40.0475 40.0085 40.1095 39.9439 40.1824 39.8935C40.2552 39.8432 40.3374 39.808 40.4241 39.7901C40.5107 39.7723 40.6001 39.7721 40.6868 39.7896L67.9146 44.6081C68.0013 44.621 68.0845 44.6515 68.1591 44.6977C68.2337 44.7439 68.2982 44.8048 68.3486 44.8768C68.3989 44.9488 68.4342 45.0303 68.4521 45.1163C68.47 45.2024 68.4703 45.2912 68.4529 45.3774C68.4308 45.5314 68.3553 45.6727 68.2396 45.7764C68.1239 45.8801 67.9755 45.9395 67.8204 45.9443Z" fill="#FFE7DA"/>
<path d="M67.8204 45.9444H40.1485C39.9701 45.9444 39.7989 45.8733 39.6727 45.7468C39.5465 45.6202 39.4756 45.4486 39.4756 45.2696C39.4756 45.0906 39.5465 44.9189 39.6727 44.7924C39.7989 44.6658 39.9701 44.5947 40.1485 44.5947H67.8204C67.9989 44.5947 68.1701 44.6658 68.2963 44.7924C68.4225 44.9189 68.4934 45.0906 68.4934 45.2696C68.4934 45.4486 68.4225 45.6202 68.2963 45.7468C68.1701 45.8733 67.9989 45.9444 67.8204 45.9444Z" fill="#FFE7DA"/>
<path d="M40.5656 50.7629C40.4078 50.765 40.2545 50.7104 40.1335 50.6088C40.0125 50.5073 39.9318 50.3656 39.9061 50.2095C39.8887 50.1216 39.8894 50.031 39.908 49.9433C39.9267 49.8556 39.9629 49.7726 40.0145 49.6994C40.0661 49.6262 40.1321 49.5642 40.2083 49.5173C40.2845 49.4705 40.3694 49.4396 40.4579 49.4267L67.6991 44.6082C67.7858 44.5907 67.8752 44.5909 67.9619 44.6087C68.0486 44.6266 68.1308 44.6618 68.2036 44.7121C68.2764 44.7625 68.3384 44.8271 68.3859 44.902C68.4333 44.9769 68.4652 45.0606 68.4797 45.1481C68.4955 45.3189 68.4458 45.4893 68.3408 45.6246C68.2358 45.76 68.0834 45.8502 67.9145 45.8769L40.6867 50.7494L40.5656 50.7629Z" fill="#FFE7DA"/>
<path d="M41.8173 55.4329C41.7289 55.4479 41.6384 55.4454 41.551 55.4254C41.4636 55.4054 41.381 55.3683 41.3079 55.3163C41.2348 55.2643 41.1726 55.1984 41.1249 55.1222C41.0772 55.0461 41.0449 54.9613 41.0299 54.8727C41.0149 54.7841 41.0174 54.6934 41.0374 54.6057C41.0573 54.5181 41.0943 54.4352 41.1461 54.3619C41.198 54.2886 41.2638 54.2262 41.3397 54.1784C41.4155 54.1306 41.5001 54.0982 41.5885 54.0831L67.5914 44.6351C67.6751 44.602 67.7646 44.5861 67.8546 44.5883C67.9445 44.5905 68.0331 44.6108 68.1151 44.6479C68.1971 44.6851 68.2708 44.7383 68.332 44.8046C68.3931 44.8708 68.4403 44.9486 68.471 45.0335C68.5016 45.1183 68.5149 45.2084 68.5101 45.2986C68.5054 45.3887 68.4827 45.4769 68.4434 45.558C68.404 45.6392 68.3489 45.7116 68.2811 45.771C68.2134 45.8304 68.1345 45.8756 68.049 45.9039L42.0461 55.3519C41.9757 55.3934 41.898 55.4209 41.8173 55.4329Z" fill="#FFE7DA"/>
<path d="M43.8631 59.8195C43.7433 59.8212 43.6253 59.7908 43.5212 59.7315C43.4171 59.6722 43.3307 59.5861 43.2709 59.4821C43.183 59.3243 43.1606 59.1382 43.2085 58.9639C43.2563 58.7897 43.3706 58.6413 43.5266 58.5508L67.4837 44.6757C67.6391 44.5883 67.8226 44.5662 67.9942 44.6143C68.1658 44.6623 68.3113 44.7766 68.399 44.9322C68.4445 45.008 68.4744 45.0923 68.4868 45.1799C68.4993 45.2676 68.4941 45.3569 68.4715 45.4425C68.4489 45.5281 68.4094 45.6082 68.3553 45.6782C68.3012 45.7482 68.2337 45.8066 68.1567 45.85L44.1995 59.725C44.0984 59.7876 43.9818 59.8203 43.8631 59.8195Z" fill="#FFE7DA"/>
<path d="M46.6224 63.7741C46.4854 63.7727 46.3521 63.7295 46.2402 63.6501C46.1284 63.5707 46.0434 63.459 45.9966 63.3299C45.9497 63.2008 45.9433 63.0604 45.9782 62.9275C46.0131 62.7947 46.0876 62.6756 46.1917 62.5863L67.3897 44.7566C67.5274 44.6648 67.6939 44.6271 67.8576 44.6506C68.0212 44.6741 68.1705 44.7572 68.2769 44.884C68.3834 45.0108 68.4396 45.1724 68.4349 45.3381C68.4301 45.5038 68.3647 45.6619 68.2511 45.7824L47.0531 63.6256C46.9322 63.7259 46.7791 63.7787 46.6224 63.7741Z" fill="#FFE7DA"/>
<path d="M50.0274 67.2024C49.8696 67.1997 49.7175 67.1425 49.5968 67.0404C49.5285 66.9845 49.4722 66.9153 49.4311 66.8371C49.39 66.7589 49.3649 66.6732 49.3574 66.5852C49.3499 66.4971 49.36 66.4084 49.3873 66.3243C49.4145 66.2402 49.4583 66.1625 49.516 66.0956L67.3089 44.8376C67.429 44.7237 67.5867 44.6581 67.7519 44.6534C67.9171 44.6486 68.0783 44.705 68.2048 44.8117C68.3312 44.9185 68.414 45.0682 68.4375 45.2323C68.4609 45.3964 68.4233 45.5634 68.3318 45.7014L50.5523 66.9595C50.4884 67.0365 50.408 67.0983 50.3172 67.1403C50.2264 67.1824 50.1274 67.2036 50.0274 67.2024Z" fill="#FFE7DA"/>
<path d="M53.9843 69.9693C53.8675 69.9684 53.7524 69.9407 53.6478 69.8883C53.4941 69.7956 53.3827 69.6463 53.3374 69.4722C53.2921 69.2981 53.3166 69.1132 53.4056 68.957L67.2415 44.9321C67.2803 44.846 67.3366 44.7691 67.4069 44.7063C67.4772 44.6434 67.5599 44.5961 67.6495 44.5673C67.7392 44.5385 67.8339 44.5289 67.9275 44.5391C68.0211 44.5493 68.1116 44.5791 68.193 44.6266C68.2744 44.6741 68.3449 44.7381 68.4001 44.8146C68.4553 44.8912 68.4938 44.9785 68.5132 45.0709C68.5326 45.1633 68.5325 45.2587 68.5128 45.3511C68.4932 45.4434 68.4544 45.5306 68.399 45.6069L54.563 69.6319C54.5043 69.7339 54.42 69.8187 54.3185 69.8779C54.217 69.9371 54.1017 69.9686 53.9843 69.9693Z" fill="#FFE7DA"/>
<path d="M48.3988 111.554C48.3231 111.568 48.2456 111.568 48.17 111.554C48.0801 111.529 47.9965 111.484 47.9246 111.425C47.8527 111.365 47.794 111.291 47.7522 111.207C47.7104 111.123 47.6865 111.031 47.6819 110.938C47.6774 110.844 47.6923 110.751 47.7258 110.663L67.1876 57.1201C67.2119 57.0321 67.254 56.9501 67.3114 56.8792C67.3688 56.8083 67.4402 56.7501 67.5211 56.7083C67.602 56.6665 67.6907 56.6419 67.7815 56.6361C67.8724 56.6303 67.9635 56.6434 68.049 56.6747C68.1332 56.7033 68.2107 56.7487 68.2769 56.8081C68.3431 56.8675 68.3967 56.9397 68.4344 57.0203C68.4721 57.101 68.4932 57.1885 68.4964 57.2775C68.4995 57.3666 68.4847 57.4553 68.4528 57.5385L49.0717 111.109C49.019 111.244 48.9261 111.359 48.8056 111.438C48.6851 111.518 48.543 111.559 48.3988 111.554Z" fill="#FFE7DA"/>
<path d="M58.3721 111.743H58.2644C58.089 111.71 57.9333 111.61 57.8303 111.464C57.7272 111.318 57.685 111.137 57.7126 110.96L67.8338 53.3948C67.8641 53.2158 67.9641 53.0562 68.1118 52.9512C68.2595 52.8461 68.4427 52.8042 68.6212 52.8346C68.7996 52.8651 68.9588 52.9653 69.0635 53.1134C69.1683 53.2615 69.2101 53.4452 69.1797 53.6242L59.045 111.176C59.0167 111.335 58.9338 111.478 58.8109 111.582C58.6879 111.685 58.5326 111.742 58.3721 111.743Z" fill="#FFE7DA"/>
<path d="M77.3358 111.797C77.1795 111.794 77.0289 111.737 76.909 111.637C76.789 111.536 76.707 111.397 76.6763 111.244L66.4743 53.5838C66.4589 53.496 66.461 53.406 66.4804 53.3191C66.4998 53.2321 66.5362 53.1498 66.5875 53.077C66.6389 53.0042 66.704 52.9424 66.7793 52.895C66.8546 52.8476 66.9385 52.8156 67.0262 52.801C67.1121 52.7835 67.2007 52.7838 67.2865 52.8018C67.3723 52.8198 67.4536 52.8551 67.5254 52.9056C67.5972 52.9561 67.6579 53.0208 67.704 53.0956C67.7501 53.1704 67.7805 53.2539 67.7933 53.3408L77.9415 111.014C77.969 111.191 77.9268 111.372 77.8238 111.518C77.7208 111.664 77.5651 111.764 77.3897 111.797H77.3358Z" fill="#FFE7DA"/>
<path d="M96.7843 111.932H38.3988C38.2203 111.932 38.0491 111.861 37.9229 111.734C37.7967 111.608 37.7258 111.436 37.7258 111.257C37.7258 111.078 37.7967 110.906 37.9229 110.78C38.0491 110.653 38.2203 110.582 38.3988 110.582H96.7843C96.9617 110.586 97.1309 110.658 97.2563 110.784C97.3818 110.91 97.4538 111.079 97.4572 111.257C97.4572 111.436 97.3863 111.608 97.2601 111.734C97.1339 111.861 96.9628 111.932 96.7843 111.932Z" fill="#FFE7DA"/>
<path d="M87.2418 111.554C87.1044 111.55 86.9711 111.506 86.8586 111.427C86.7461 111.348 86.6594 111.237 86.6092 111.109L67.1877 57.5924C67.1271 57.4241 67.1356 57.2387 67.2113 57.0767C67.287 56.9147 67.4238 56.7895 67.5915 56.7286C67.6736 56.6963 67.7613 56.6808 67.8494 56.6831C67.9376 56.6854 68.0243 56.7053 68.1046 56.7418C68.185 56.7783 68.2572 56.8306 68.317 56.8955C68.3768 56.9605 68.423 57.0368 68.4529 57.12L87.8743 110.663C87.935 110.831 87.9265 111.017 87.8508 111.179C87.775 111.341 87.6383 111.466 87.4706 111.527C87.3966 111.55 87.319 111.559 87.2418 111.554Z" fill="#FFE7DA"/>
<path d="M81.6562 69.9693C81.5387 69.9686 81.4235 69.9371 81.322 69.8779C81.2205 69.8187 81.1362 69.7339 81.0774 69.6319L67.2415 45.6069C67.1861 45.5306 67.1473 45.4434 67.1277 45.3511C67.108 45.2587 67.1078 45.1633 67.1273 45.0709C67.1467 44.9785 67.1852 44.8912 67.2404 44.8146C67.2955 44.7381 67.3661 44.6741 67.4475 44.6266C67.5289 44.5791 67.6193 44.5493 67.713 44.5391C67.8066 44.5289 67.9013 44.5385 67.9909 44.5673C68.0806 44.5961 68.1633 44.6434 68.2336 44.7063C68.3039 44.7691 68.3602 44.846 68.399 44.9321L82.2349 68.957C82.3239 69.1132 82.3483 69.2981 82.3031 69.4722C82.2578 69.6463 82.1464 69.7956 81.9927 69.8883C81.8886 69.9421 81.7732 69.9699 81.6562 69.9693Z" fill="#FFE7DA"/>
<path d="M85.6133 67.2023C85.5133 67.2034 85.4143 67.1822 85.3235 67.1402C85.2327 67.0982 85.1524 67.0364 85.0884 66.9593L67.3089 45.7013C67.2401 45.636 67.1857 45.5568 67.1495 45.469C67.1133 45.3811 67.0959 45.2866 67.0987 45.1915C67.1014 45.0965 67.1241 45.0031 67.1653 44.9175C67.2066 44.8319 67.2654 44.756 67.3379 44.6948C67.4104 44.6336 67.495 44.5884 67.5861 44.5622C67.6773 44.536 67.7729 44.5295 67.8667 44.5429C67.9606 44.5564 68.0505 44.5896 68.1307 44.6404C68.2108 44.6911 68.2794 44.7583 68.3318 44.8375L86.1247 66.1225C86.1825 66.1893 86.2262 66.2671 86.2535 66.3512C86.2807 66.4352 86.2909 66.5239 86.2833 66.612C86.2758 66.7001 86.2508 66.7858 86.2096 66.864C86.1685 66.9422 86.1122 67.0113 86.044 67.0673C85.9197 67.1597 85.7679 67.2072 85.6133 67.2023Z" fill="#FFE7DA"/>
<path d="M89.0184 63.7741C88.8616 63.7786 88.7085 63.7259 88.5877 63.6256L67.3896 45.7823C67.3107 45.7297 67.2437 45.661 67.1931 45.5806C67.1424 45.5002 67.1093 45.41 67.0959 45.3159C67.0825 45.2218 67.089 45.1259 67.1151 45.0345C67.1412 44.9431 67.1863 44.8583 67.2473 44.7856C67.3084 44.7128 67.3841 44.6539 67.4694 44.6126C67.5548 44.5712 67.6479 44.5484 67.7427 44.5457C67.8374 44.543 67.9317 44.5603 68.0193 44.5967C68.1069 44.633 68.1859 44.6875 68.251 44.7566L89.449 62.5863C89.5532 62.6756 89.6277 62.7946 89.6625 62.9275C89.6974 63.0604 89.691 63.2007 89.6442 63.3299C89.5973 63.459 89.5123 63.5707 89.4005 63.6501C89.2887 63.7294 89.1554 63.7727 89.0184 63.7741Z" fill="#FFE7DA"/>
<path d="M91.791 59.8193C91.6719 59.8234 91.5543 59.7904 91.4546 59.7249L67.4839 45.8768C67.4069 45.8334 67.3394 45.775 67.2853 45.705C67.2313 45.635 67.1918 45.5549 67.1692 45.4693C67.1466 45.3837 67.1414 45.2944 67.1538 45.2067C67.1663 45.1191 67.1961 45.0348 67.2417 44.959C67.3318 44.8061 67.4773 44.694 67.6479 44.6462C67.8184 44.5985 68.0008 44.6186 68.1569 44.7025L92.141 58.5506C92.2947 58.6433 92.4061 58.7927 92.4514 58.9667C92.4967 59.1408 92.4722 59.3257 92.3832 59.4819C92.3234 59.5859 92.237 59.672 92.1329 59.7313C92.0288 59.7906 91.9108 59.821 91.791 59.8193Z" fill="#FFE7DA"/>
<path d="M93.8233 55.4328C93.7475 55.4456 93.6702 55.4456 93.5945 55.4328L67.5915 45.8768C67.4238 45.8159 67.287 45.6907 67.2113 45.5287C67.1356 45.3667 67.1271 45.1812 67.1877 45.013C67.2163 44.9286 67.2615 44.8509 67.3207 44.7845C67.38 44.718 67.452 44.6643 67.5324 44.6265C67.6129 44.5887 67.7001 44.5675 67.7889 44.5644C67.8777 44.5612 67.9662 44.5761 68.0491 44.6081L94.0521 54.0561C94.1362 54.0847 94.2137 54.13 94.28 54.1894C94.3462 54.2488 94.3998 54.321 94.4375 54.4017C94.4752 54.4824 94.4962 54.5699 94.4994 54.6589C94.5026 54.748 94.4877 54.8367 94.4558 54.9199C94.4187 55.0618 94.3373 55.1882 94.2235 55.2804C94.1097 55.3727 93.9695 55.4261 93.8233 55.4328Z" fill="#FFE7DA"/>
<path d="M95.0749 50.7629H94.9538L67.6992 45.877C67.5246 45.8442 67.37 45.7434 67.2691 45.5968C67.1683 45.4501 67.1293 45.2695 67.1608 45.0941C67.1753 45.0066 67.2072 44.9229 67.2547 44.848C67.3021 44.7731 67.3641 44.7086 67.4369 44.6582C67.5098 44.6078 67.592 44.5726 67.6786 44.5548C67.7653 44.5369 67.8547 44.5367 67.9414 44.5542L95.1961 49.3727C95.2833 49.3873 95.3668 49.4193 95.4415 49.4669C95.5162 49.5145 95.5805 49.5766 95.6308 49.6497C95.681 49.7227 95.7161 49.8051 95.7339 49.892C95.7517 49.979 95.7519 50.0686 95.7344 50.1556C95.7209 50.3215 95.6455 50.4761 95.5232 50.5887C95.401 50.7013 95.2409 50.7635 95.0749 50.7629Z" fill="#FFE7DA"/>
<path d="M95.4923 45.9444H67.8204C67.6419 45.9444 67.4708 45.8733 67.3446 45.7468C67.2184 45.6202 67.1475 45.4486 67.1475 45.2696C67.1475 45.0906 67.2184 44.9189 67.3446 44.7924C67.4708 44.6658 67.6419 44.5947 67.8204 44.5947H95.4923C95.6708 44.5947 95.8419 44.6658 95.9681 44.7924C96.0943 44.9189 96.1652 45.0906 96.1652 45.2696C96.1652 45.4486 96.0943 45.6202 95.9681 45.7468C95.8419 45.8733 95.6708 45.9444 95.4923 45.9444Z" fill="#FFE7DA"/>
<path d="M67.8203 45.9443C67.6605 45.9459 67.5056 45.8894 67.3843 45.7851C67.263 45.6809 67.1836 45.536 67.1608 45.3774C67.1434 45.2912 67.1437 45.2024 67.1616 45.1163C67.1796 45.0303 67.2148 44.9488 67.2652 44.8768C67.3155 44.8048 67.38 44.7439 67.4546 44.6977C67.5292 44.6515 67.6124 44.621 67.6991 44.6081L94.9538 39.7896C95.0405 39.7721 95.1299 39.7723 95.2166 39.7901C95.3032 39.808 95.3854 39.8432 95.4583 39.8935C95.5311 39.9439 95.5931 40.0085 95.6405 40.0834C95.688 40.1583 95.7199 40.242 95.7344 40.3295C95.7659 40.5048 95.7269 40.6855 95.6261 40.8321C95.5252 40.9788 95.3706 41.0795 95.196 41.1123L67.9145 45.8768L67.8203 45.9443Z" fill="#FFE7DA"/>
<path d="M67.8202 45.9444C67.6417 45.9748 67.4585 45.9329 67.3108 45.8278C67.1632 45.7228 67.0632 45.5632 67.0329 45.3842C67.0025 45.2053 67.0443 45.0215 67.1491 44.8734C67.2538 44.7254 67.4129 44.6251 67.5914 44.5947L93.5944 35.1466C93.6773 35.1147 93.7658 35.0998 93.8546 35.103C93.9434 35.1061 94.0306 35.1272 94.1111 35.1651C94.1915 35.2029 94.2635 35.2566 94.3227 35.323C94.382 35.3894 94.4272 35.4672 94.4557 35.5516C94.5163 35.7198 94.5079 35.9053 94.4321 36.0673C94.3564 36.2293 94.2197 36.3545 94.052 36.4154L68.049 45.8769C67.9777 45.9137 67.9001 45.9366 67.8202 45.9444Z" fill="#FFE7DA"/>
<path d="M67.8202 45.9442C67.7028 45.9435 67.5876 45.912 67.4861 45.8528C67.3845 45.7936 67.3002 45.7088 67.2415 45.6068C67.1525 45.4506 67.1281 45.2657 67.1734 45.0916C67.2186 44.9176 67.3301 44.7682 67.4838 44.6755L91.4544 30.8004C91.6105 30.7165 91.7928 30.6964 91.9634 30.7441C92.134 30.7919 92.2795 30.904 92.3696 31.0569C92.4151 31.1327 92.445 31.217 92.4575 31.3046C92.4699 31.3923 92.4647 31.4816 92.4421 31.5672C92.4195 31.6528 92.38 31.7329 92.3259 31.8029C92.2719 31.8729 92.2043 31.9313 92.1273 31.9747L68.1567 45.8767C68.0534 45.9313 67.9365 45.9547 67.8202 45.9442Z" fill="#FFE7DA"/>
<path d="M67.8204 45.9442C67.6834 45.9429 67.5501 45.8996 67.4382 45.8202C67.3264 45.7409 67.2414 45.6291 67.1946 45.5C67.1477 45.3709 67.1413 45.2305 67.1762 45.0977C67.2111 44.9648 67.2855 44.8458 67.3897 44.7565L88.5877 26.9807C88.7254 26.889 88.8919 26.8512 89.0556 26.8747C89.2192 26.8982 89.3685 26.9813 89.4749 27.1081C89.5814 27.2349 89.6376 27.3965 89.6329 27.5622C89.6281 27.7279 89.5627 27.8861 89.4491 28.0065L68.2511 45.7823C68.1315 45.8863 67.9787 45.9438 67.8204 45.9442Z" fill="#FFE7DA"/>
<path d="M67.8204 45.9444C67.693 45.9433 67.5685 45.906 67.4614 45.8368C67.3543 45.7675 67.269 45.6692 67.2155 45.5533C67.1619 45.4374 67.1422 45.3086 67.1588 45.1819C67.1753 45.0552 67.2274 44.9358 67.309 44.8376L85.0884 23.5796C85.2056 23.4437 85.3712 23.3591 85.5498 23.344C85.7283 23.3289 85.9057 23.3844 86.044 23.4986C86.1122 23.5546 86.1686 23.6238 86.2097 23.702C86.2508 23.7802 86.2758 23.8658 86.2834 23.9539C86.2909 24.042 86.2807 24.1307 86.2535 24.2148C86.2263 24.2988 86.1825 24.3766 86.1248 24.4434L68.3319 45.7014C68.2699 45.7775 68.1919 45.8387 68.1034 45.8807C68.015 45.9227 67.9183 45.9445 67.8204 45.9444Z" fill="#FFE7DA"/>
<path d="M67.8204 45.9442C67.7016 45.9451 67.585 45.9123 67.4839 45.8498C67.4069 45.8064 67.3394 45.748 67.2853 45.678C67.2313 45.608 67.1918 45.5279 67.1692 45.4423C67.1466 45.3567 67.1414 45.2674 67.1538 45.1797C67.1663 45.0921 67.1961 45.0078 67.2417 44.932L81.0776 20.8935C81.1164 20.8075 81.1728 20.7305 81.243 20.6677C81.3133 20.6049 81.396 20.5575 81.4857 20.5287C81.5753 20.4999 81.67 20.4903 81.7637 20.5005C81.8573 20.5108 81.9477 20.5406 82.0291 20.588C82.1105 20.6355 82.1811 20.6995 82.2362 20.7761C82.2914 20.8526 82.3299 20.9399 82.3493 21.0323C82.3688 21.1247 82.3686 21.2201 82.3489 21.3125C82.3293 21.4048 82.2905 21.492 82.2351 21.5684L68.3992 45.6068C68.3404 45.7088 68.2561 45.7936 68.1546 45.8528C68.0531 45.912 67.9379 45.9435 67.8204 45.9442Z" fill="#FFE7DA"/>
<path d="M67.8204 45.9444C67.7123 45.9444 67.6059 45.9183 67.5101 45.8683C67.4142 45.8183 67.3318 45.7458 67.2697 45.6571C67.2077 45.5684 67.1679 45.4661 67.1536 45.3587C67.1393 45.2513 67.1511 45.142 67.1878 45.0401L76.6092 18.9636C76.6699 18.7954 76.7947 18.6583 76.9563 18.5824C77.1178 18.5064 77.3028 18.4979 77.4705 18.5587C77.5547 18.5873 77.6322 18.6327 77.6984 18.6921C77.7646 18.7515 77.8182 18.8237 77.8559 18.9043C77.8936 18.985 77.9147 19.0725 77.9179 19.1615C77.921 19.2506 77.9062 19.3394 77.8743 19.4225L68.453 45.499C68.4043 45.6284 68.3179 45.7401 68.2051 45.8195C68.0923 45.899 67.9582 45.9425 67.8204 45.9444Z" fill="#FFE7DA"/>
<path d="M67.8203 45.9444H67.6992C67.5246 45.9116 67.37 45.8109 67.2691 45.6642C67.1683 45.5176 67.1293 45.3369 67.1608 45.1616L71.9522 17.8163C71.9667 17.7288 71.9987 17.6451 72.0461 17.5702C72.0935 17.4953 72.1555 17.4307 72.2284 17.3803C72.3012 17.33 72.3834 17.2948 72.4701 17.277C72.5567 17.2591 72.6461 17.2589 72.7329 17.2764C72.9075 17.3092 73.062 17.4099 73.1629 17.5566C73.2637 17.7032 73.3027 17.8839 73.2712 18.0593L68.4798 45.3775C68.457 45.5361 68.3775 45.6809 68.2562 45.7852C68.1349 45.8895 67.98 45.946 67.8203 45.9444Z" fill="#FFE7DA"/>
<path d="M67.8204 45.9443C67.6419 45.9443 67.4708 45.8732 67.3446 45.7466C67.2184 45.6201 67.1475 45.4484 67.1475 45.2694V17.5328C67.1475 17.3538 67.2184 17.1821 67.3446 17.0556C67.4708 16.929 67.6419 16.8579 67.8204 16.8579C67.9989 16.8579 68.1701 16.929 68.2963 17.0556C68.4225 17.1821 68.4934 17.3538 68.4934 17.5328V45.2694C68.4934 45.4484 68.4225 45.6201 68.2963 45.7466C68.1701 45.8732 67.9989 45.9443 67.8204 45.9443Z" fill="#FFE7DA"/>
<path d="M92.141 111.932C91.9625 111.932 91.7913 111.861 91.6651 111.734C91.5389 111.608 91.468 111.436 91.468 111.257V69.7532C91.468 69.5742 91.5389 69.4026 91.6651 69.276C91.7913 69.1495 91.9625 69.0784 92.141 69.0784C92.3195 69.0784 92.4906 69.1495 92.6168 69.276C92.743 69.4026 92.8139 69.5742 92.8139 69.7532V111.257C92.8139 111.436 92.743 111.608 92.6168 111.734C92.4906 111.861 92.3195 111.932 92.141 111.932Z" fill="#FFE7DA"/>
<path d="M98.8704 75.4357C98.7247 75.4367 98.5827 75.3892 98.4667 75.3007L91.7371 70.1178C91.5973 70.0083 91.5051 69.8488 91.48 69.6726C91.455 69.4965 91.4989 69.3174 91.6025 69.173C91.7116 69.0319 91.872 68.9399 92.0486 68.9171C92.2252 68.8944 92.4036 68.9427 92.5447 69.0515L99.2742 74.2345C99.3827 74.3217 99.4615 74.4405 99.4999 74.5745C99.5383 74.7085 99.5343 74.8512 99.4886 74.9828C99.4429 75.1145 99.3576 75.2287 99.2445 75.3098C99.1314 75.3909 98.996 75.4349 98.857 75.4357H98.8704Z" fill="#FFE7DA"/>
<path d="M85.2632 75.4355C85.1599 75.4371 85.0575 75.4148 84.9642 75.3703C84.8708 75.3258 84.7889 75.2604 84.7249 75.1791C84.6212 75.0347 84.5773 74.8556 84.6024 74.6795C84.6275 74.5033 84.7196 74.3438 84.8594 74.2343L91.589 69.0514C91.7308 68.9549 91.9039 68.9164 92.073 68.9435C92.2422 68.9707 92.3946 69.0615 92.4993 69.1975C92.604 69.3334 92.653 69.5043 92.6364 69.6753C92.6198 69.8463 92.5389 70.0045 92.41 70.1176L85.6804 75.3005C85.5619 75.394 85.4139 75.4418 85.2632 75.4355Z" fill="#FFE7DA"/>
<path d="M100.216 81.9278C100.069 81.924 99.9274 81.8718 99.8126 81.7794L91.7372 75.5842C91.6083 75.471 91.5273 75.3128 91.5107 75.1418C91.4941 74.9709 91.5432 74.8 91.6479 74.664C91.7526 74.5281 91.905 74.4372 92.0742 74.4101C92.2433 74.3829 92.4164 74.4215 92.5582 74.5179L100.634 80.7131C100.748 80.7988 100.832 80.9185 100.873 81.055C100.915 81.1915 100.913 81.3379 100.866 81.4729C100.82 81.608 100.732 81.7248 100.615 81.8065C100.498 81.8883 100.359 81.9307 100.216 81.9278Z" fill="#FFE7DA"/>
<path d="M83.9308 81.9278C83.8265 81.9268 83.7238 81.902 83.6305 81.8552C83.5372 81.8084 83.4558 81.7409 83.3924 81.6579C83.3394 81.587 83.3008 81.5063 83.2789 81.4205C83.2569 81.3346 83.2521 81.2453 83.2646 81.1575C83.2771 81.0698 83.3067 80.9854 83.3517 80.9091C83.3967 80.8329 83.4563 80.7663 83.527 80.7131L91.6024 74.5179C91.6706 74.4508 91.7523 74.399 91.842 74.366C91.9317 74.333 92.0273 74.3195 92.1226 74.3265C92.2179 74.3334 92.3106 74.3607 92.3946 74.4063C92.4786 74.452 92.5519 74.5151 92.6097 74.5914C92.6675 74.6677 92.7084 74.7554 92.7297 74.8488C92.7511 74.9422 92.7524 75.0391 92.7335 75.133C92.7146 75.2269 92.6759 75.3157 92.6202 75.3935C92.5644 75.4713 92.4927 75.5363 92.41 75.5842L84.3345 81.7794C84.2208 81.8736 84.0783 81.926 83.9308 81.9278Z" fill="#FFE7DA"/>
<path d="M101.185 88.3795C101.035 88.3825 100.888 88.335 100.768 88.2446L91.6967 81.3205C91.5678 81.2073 91.4868 81.0491 91.4702 80.8782C91.4536 80.7072 91.5027 80.5363 91.6074 80.4003C91.712 80.2644 91.8645 80.1736 92.0336 80.1464C92.2028 80.1193 92.3759 80.1578 92.5177 80.2542L101.562 87.1648C101.703 87.2742 101.795 87.435 101.817 87.6121C101.84 87.7892 101.792 87.9681 101.683 88.1096C101.627 88.1903 101.553 88.2567 101.466 88.3035C101.38 88.3504 101.284 88.3764 101.185 88.3795Z" fill="#FFE7DA"/>
<path d="M82.9752 88.3795C82.8709 88.3784 82.7682 88.3536 82.6749 88.3068C82.5817 88.2601 82.5002 88.1926 82.4368 88.1095C82.3298 87.9663 82.2838 87.7864 82.309 87.6092C82.3343 87.432 82.4286 87.2721 82.5714 87.1647L91.6428 80.2542C91.784 80.1453 91.9624 80.097 92.1389 80.1198C92.3155 80.1425 92.4759 80.2346 92.585 80.3757C92.6887 80.5201 92.7326 80.6991 92.7075 80.8752C92.6824 81.0514 92.5903 81.211 92.4504 81.3205L83.379 88.2445C83.263 88.333 83.121 88.3805 82.9752 88.3795Z" fill="#FFE7DA"/>
<path d="M96.6497 92.9144C96.4995 92.9173 96.3526 92.8698 96.2324 92.7794L91.6833 89.3106C91.5405 89.2014 91.4468 89.0399 91.4228 88.8614C91.3988 88.683 91.4465 88.5023 91.5554 88.3591C91.6643 88.2159 91.8254 88.1219 92.0034 88.0979C92.1813 88.0738 92.3615 88.1217 92.5043 88.2308L97.0534 91.7671C97.1246 91.8201 97.1844 91.887 97.2292 91.9637C97.2741 92.0405 97.303 92.1255 97.3143 92.2137C97.3256 92.3019 97.319 92.3915 97.295 92.4771C97.271 92.5627 97.2301 92.6425 97.1746 92.7119C97.1086 92.784 97.0268 92.8397 96.9358 92.8748C96.8447 92.91 96.7468 92.9235 96.6497 92.9144Z" fill="#FFE7DA"/>
<path d="M87.5111 92.9144C87.3691 92.9195 87.2293 92.8785 87.1125 92.7974C86.9957 92.7164 86.908 92.5997 86.8627 92.4647C86.8173 92.3298 86.8166 92.1837 86.8607 92.0483C86.9048 91.9129 86.9913 91.7953 87.1073 91.7132L91.6565 88.2309C91.7272 88.1777 91.8076 88.1391 91.8932 88.1171C91.9788 88.0951 92.0679 88.0902 92.1554 88.1027C92.2429 88.1153 92.3271 88.145 92.4031 88.1901C92.4791 88.2353 92.5456 88.295 92.5986 88.3659C92.7023 88.5103 92.7462 88.6893 92.7211 88.8655C92.696 89.0416 92.6039 89.2012 92.464 89.3107L87.9148 92.7795C87.7988 92.868 87.6568 92.9154 87.5111 92.9144Z" fill="#FFE7DA"/>
<path d="M95.2363 97.166C95.0909 97.165 94.9495 97.1177 94.8326 97.031L91.6966 94.642C91.5567 94.5325 91.4646 94.3729 91.4395 94.1968C91.4144 94.0206 91.4583 93.8416 91.562 93.6972C91.615 93.6263 91.6815 93.5666 91.7575 93.5214C91.8336 93.4763 91.9177 93.4466 92.0052 93.434C92.0927 93.4215 92.1818 93.4264 92.2674 93.4484C92.353 93.4704 92.4334 93.509 92.5041 93.5622L95.6536 95.9647C95.7943 96.0741 95.886 96.2349 95.9087 96.412C95.9314 96.5891 95.8832 96.768 95.7747 96.9095C95.7129 96.9933 95.6314 97.0606 95.5375 97.1053C95.4436 97.15 95.3402 97.1709 95.2363 97.166Z" fill="#FFE7DA"/>
<path d="M88.9242 97.166C88.8199 97.1649 88.7172 97.1401 88.6239 97.0933C88.5306 97.0465 88.4492 96.9791 88.3858 96.896C88.3328 96.8251 88.2942 96.7444 88.2723 96.6586C88.2503 96.5727 88.2455 96.4834 88.258 96.3957C88.2705 96.3079 88.3001 96.2235 88.3451 96.1473C88.3901 96.071 88.4497 96.0044 88.5204 95.9512L91.6564 93.5487C91.7991 93.4395 91.9793 93.3917 92.1573 93.4158C92.3352 93.4398 92.4964 93.5338 92.6052 93.6769C92.7141 93.8201 92.7618 94.0008 92.7378 94.1793C92.7138 94.3577 92.6202 94.5193 92.4774 94.6285L89.328 97.031C89.2115 97.1186 89.0698 97.166 88.9242 97.166Z" fill="#FFE7DA"/>
<path d="M43.6881 111.932C43.5096 111.932 43.3384 111.861 43.2122 111.734C43.086 111.608 43.0151 111.436 43.0151 111.257V69.7532C43.0151 69.5742 43.086 69.4026 43.2122 69.276C43.3384 69.1495 43.5096 69.0784 43.6881 69.0784C43.8666 69.0784 44.0377 69.1495 44.1639 69.276C44.2901 69.4026 44.361 69.5742 44.361 69.7532V111.257C44.361 111.436 44.2901 111.608 44.1639 111.734C44.0377 111.861 43.8666 111.932 43.6881 111.932Z" fill="#FFE7DA"/>
<path d="M50.512 75.4357C50.3663 75.4367 50.2243 75.3892 50.1083 75.3007L43.3787 70.1178C43.2389 70.0083 43.1467 69.8488 43.1216 69.6726C43.0966 69.4965 43.1405 69.3174 43.2441 69.173C43.3532 69.0319 43.5136 68.9399 43.6902 68.9171C43.8668 68.8944 44.0451 68.9427 44.1863 69.0515L50.9293 74.221C51.0377 74.3082 51.1166 74.427 51.155 74.561C51.1933 74.695 51.1894 74.8377 51.1437 74.9693C51.0979 75.101 51.0127 75.2152 50.8996 75.2963C50.7864 75.3774 50.6511 75.4214 50.512 75.4222V75.4357Z" fill="#FFE7DA"/>
<path d="M36.9585 75.4356C36.8552 75.4372 36.7529 75.4149 36.6595 75.3704C36.5661 75.3259 36.4842 75.2605 36.4202 75.1791C36.3165 75.0347 36.2726 74.8557 36.2977 74.6795C36.3228 74.5034 36.4149 74.3438 36.5548 74.2343L43.2843 69.0514C43.3534 68.9907 43.4342 68.9449 43.5216 68.9167C43.6091 68.8885 43.7014 68.8785 43.7928 68.8875C43.8843 68.8964 43.9729 68.924 44.0533 68.9686C44.1337 69.0131 44.2041 69.0738 44.2603 69.1467C44.3164 69.2196 44.3571 69.3033 44.3798 69.3926C44.4024 69.4818 44.4066 69.5748 44.3921 69.6658C44.3776 69.7568 44.3447 69.8438 44.2953 69.9215C44.246 69.9992 44.1813 70.066 44.1053 70.1177L37.3758 75.3006C37.2556 75.391 37.1087 75.4386 36.9585 75.4356Z" fill="#FFE7DA"/>
<path d="M51.8578 81.9277C51.7062 81.9258 51.5595 81.8735 51.4406 81.7792L43.3651 75.584C43.2891 75.5323 43.2244 75.4655 43.1751 75.3878C43.1257 75.3101 43.0928 75.2231 43.0783 75.1321C43.0638 75.0411 43.068 74.9481 43.0906 74.8589C43.1133 74.7696 43.154 74.6859 43.2101 74.613C43.2663 74.5401 43.3367 74.4795 43.4171 74.4349C43.4975 74.3903 43.5861 74.3627 43.6776 74.3538C43.769 74.3448 43.8613 74.3548 43.9488 74.383C44.0362 74.4112 44.117 74.457 44.1861 74.5177L52.2616 80.7129C52.4023 80.8223 52.494 80.9832 52.5167 81.1602C52.5394 81.3373 52.4912 81.5162 52.3827 81.6577C52.3237 81.7421 52.245 81.8108 52.1535 81.8578C52.0621 81.9049 51.9606 81.9288 51.8578 81.9277Z" fill="#FFE7DA"/>
<path d="M35.6127 81.9278C35.4714 81.9278 35.3338 81.8833 35.2192 81.8004C35.1046 81.7176 35.0189 81.6008 34.9742 81.4664C34.9296 81.332 34.9282 81.187 34.9703 81.0518C35.0124 80.9166 35.0959 80.7981 35.2089 80.7131L43.2843 74.5179C43.3525 74.4508 43.4342 74.399 43.5239 74.366C43.6136 74.333 43.7092 74.3195 43.8045 74.3265C43.8998 74.3334 43.9925 74.3607 44.0765 74.4063C44.1605 74.452 44.2338 74.5151 44.2916 74.5914C44.3494 74.6677 44.3903 74.7554 44.4116 74.8488C44.433 74.9422 44.4342 75.0391 44.4153 75.133C44.3964 75.2269 44.3578 75.3157 44.3021 75.3935C44.2463 75.4713 44.1746 75.5363 44.0919 75.5842L36.0164 81.7794C35.9027 81.8736 35.7602 81.926 35.6127 81.9278Z" fill="#FFE7DA"/>
<path d="M52.8134 88.3795C52.6632 88.3824 52.5164 88.3349 52.3962 88.2445L43.3248 81.3205C43.187 81.209 43.0975 81.0485 43.0749 80.8725C43.0524 80.6964 43.0985 80.5184 43.2037 80.3757C43.3127 80.2346 43.4731 80.1425 43.6497 80.1198C43.8263 80.097 44.0047 80.1453 44.1458 80.2542L53.2172 87.1647C53.3579 87.2741 53.4497 87.435 53.4724 87.612C53.4951 87.7891 53.4469 87.968 53.3383 88.1095C53.2793 88.1939 53.2007 88.2626 53.1092 88.3096C53.0177 88.3566 52.9162 88.3806 52.8134 88.3795Z" fill="#FFE7DA"/>
<path d="M34.6034 88.3795C34.4991 88.3784 34.3964 88.3536 34.3031 88.3068C34.2098 88.2601 34.1284 88.1926 34.065 88.1095C34.012 88.0386 33.9734 87.958 33.9515 87.8721C33.9295 87.7863 33.9247 87.6969 33.9372 87.6092C33.9497 87.5214 33.9793 87.437 34.0243 87.3608C34.0693 87.2845 34.1289 87.2179 34.1996 87.1647L43.271 80.2542C43.4121 80.1453 43.5905 80.097 43.7671 80.1198C43.9437 80.1425 44.1041 80.2346 44.2132 80.3757C44.3168 80.5201 44.3607 80.6991 44.3357 80.8752C44.3106 81.0514 44.2184 81.2109 44.0786 81.3205L35.0071 88.2445C34.8921 88.3349 34.7495 88.3826 34.6034 88.3795Z" fill="#FFE7DA"/>
<path d="M48.2778 92.9144C48.1276 92.9173 47.9808 92.8698 47.8606 92.7794L43.3114 89.3106C43.1687 89.2014 43.075 89.0399 43.051 88.8614C43.027 88.683 43.0747 88.5023 43.1836 88.3591C43.2924 88.2159 43.4536 88.1219 43.6315 88.0979C43.8095 88.0738 43.9897 88.1217 44.1324 88.2308L48.6816 91.7671C48.8215 91.8766 48.9136 92.0362 48.9387 92.2123C48.9638 92.3885 48.9199 92.5675 48.8162 92.7119C48.747 92.7834 48.6628 92.8387 48.5697 92.8737C48.4766 92.9087 48.3769 92.9226 48.2778 92.9144Z" fill="#FFE7DA"/>
<path d="M39.139 92.9144C38.997 92.9195 38.8572 92.8785 38.7404 92.7974C38.6236 92.7164 38.536 92.5997 38.4906 92.4647C38.4452 92.3298 38.4445 92.1837 38.4886 92.0483C38.5327 91.9129 38.6192 91.7953 38.7352 91.7132L43.2844 88.2309C43.4272 88.1235 43.6066 88.0774 43.7833 88.1027C43.96 88.128 44.1194 88.2227 44.2265 88.3659C44.3336 88.5091 44.3796 88.6891 44.3544 88.8662C44.3291 89.0434 44.2347 89.2033 44.0919 89.3107L39.5428 92.7795C39.4267 92.868 39.2848 92.9154 39.139 92.9144Z" fill="#FFE7DA"/>
<path d="M46.8645 97.166C46.7133 97.1622 46.5672 97.1102 46.4473 97.0176L43.3113 94.6286C43.1715 94.5191 43.0794 94.3595 43.0543 94.1834C43.0292 94.0072 43.0731 93.8282 43.1768 93.6838C43.2298 93.6129 43.2962 93.5531 43.3723 93.508C43.4483 93.4628 43.5325 93.4331 43.6199 93.4206C43.7074 93.4081 43.7965 93.4129 43.8821 93.4349C43.9677 93.4569 44.0482 93.4956 44.1189 93.5488L47.2683 95.9513C47.3813 96.0363 47.4648 96.1547 47.5069 96.2899C47.549 96.4251 47.5476 96.5702 47.503 96.7046C47.4583 96.8389 47.3726 96.9558 47.258 97.0386C47.1434 97.1215 47.0058 97.166 46.8645 97.166Z" fill="#FFE7DA"/>
<path d="M40.5521 97.166C40.4478 97.1649 40.3451 97.1401 40.2518 97.0933C40.1586 97.0465 40.0771 96.9791 40.0137 96.896C39.9607 96.8251 39.9221 96.7444 39.9002 96.6586C39.8783 96.5727 39.8734 96.4834 39.8859 96.3957C39.8984 96.3079 39.928 96.2235 39.973 96.1473C40.0181 96.071 40.0776 96.0044 40.1483 95.9512L43.2843 93.5487C43.4271 93.4395 43.6073 93.3917 43.7852 93.4158C43.9632 93.4398 44.1243 93.5338 44.2332 93.6769C44.342 93.8201 44.3897 94.0008 44.3657 94.1793C44.3418 94.3577 44.2481 94.5193 44.1053 94.6285L40.9963 97.031C40.8688 97.1274 40.7114 97.1752 40.5521 97.166Z" fill="#FFE7DA"/>
<path d="M67.8338 111.932C67.6554 111.932 67.4842 111.861 67.358 111.734C67.2318 111.608 67.1609 111.436 67.1609 111.257V95.8165C67.1609 95.6375 67.2318 95.4658 67.358 95.3393C67.4842 95.2127 67.6554 95.1416 67.8338 95.1416C68.0123 95.1416 68.1835 95.2127 68.3097 95.3393C68.4359 95.4658 68.5068 95.6375 68.5068 95.8165V111.257C68.5068 111.436 68.4359 111.608 68.3097 111.734C68.1835 111.861 68.0123 111.932 67.8338 111.932Z" fill="#FFE7DA"/>
<path d="M72.0868 98.8532C71.9397 98.8493 71.7978 98.7971 71.6831 98.7047L67.43 95.4654C67.2901 95.3559 67.198 95.1963 67.1729 95.0201C67.1478 94.844 67.1917 94.665 67.2954 94.5206C67.407 94.3794 67.5684 94.2866 67.7463 94.2615C67.9242 94.2364 68.1049 94.2808 68.251 94.3856L72.4906 97.6384C72.5613 97.6916 72.6209 97.7582 72.6659 97.8345C72.7109 97.9107 72.7405 97.9951 72.753 98.0829C72.7655 98.1706 72.7607 98.2599 72.7387 98.3458C72.7168 98.4316 72.6782 98.5123 72.6252 98.5832C72.5618 98.6663 72.4804 98.7337 72.3871 98.7805C72.2938 98.8273 72.1911 98.8521 72.0868 98.8532Z" fill="#FFE7DA"/>
<path d="M63.5538 98.8533C63.4495 98.8522 63.3468 98.8274 63.2536 98.7806C63.1603 98.7339 63.0788 98.6664 63.0155 98.5833C62.9624 98.5124 62.9238 98.4318 62.9019 98.3459C62.88 98.26 62.8751 98.1707 62.8876 98.083C62.9001 97.9952 62.9297 97.9108 62.9748 97.8346C63.0198 97.7583 63.0793 97.6917 63.15 97.6385L67.4031 94.3857C67.5459 94.2783 67.7254 94.2322 67.9021 94.2575C68.0787 94.2828 68.2382 94.3775 68.3452 94.5207C68.4523 94.6639 68.4983 94.8439 68.4731 95.021C68.4478 95.1982 68.3534 95.3581 68.2107 95.4655L63.9576 98.7048C63.8439 98.7991 63.7014 98.8515 63.5538 98.8533Z" fill="#FFE7DA"/>
<path d="M73.7828 104.616C73.637 104.617 73.495 104.57 73.379 104.481L67.4301 99.9464C67.2873 99.8372 67.1936 99.6756 67.1696 99.4971C67.1457 99.3187 67.1934 99.138 67.3022 98.9948C67.4111 98.8516 67.5722 98.7577 67.7502 98.7336C67.9281 98.7096 68.1083 98.7574 68.2511 98.8666L74.2 103.402C74.3407 103.511 74.4325 103.672 74.4552 103.849C74.4779 104.026 74.4297 104.205 74.3211 104.346C74.2577 104.429 74.1763 104.497 74.083 104.544C73.9898 104.591 73.8871 104.615 73.7828 104.616Z" fill="#FFE7DA"/>
<path d="M61.858 104.616C61.7537 104.615 61.651 104.591 61.5578 104.544C61.4645 104.497 61.383 104.429 61.3197 104.346C61.2126 104.203 61.1666 104.023 61.1918 103.846C61.2171 103.669 61.3115 103.509 61.4542 103.402L67.3897 98.8666C67.5325 98.7574 67.7127 98.7096 67.8906 98.7336C68.0686 98.7577 68.2297 98.8516 68.3386 98.9948C68.4474 99.138 68.4951 99.3187 68.4712 99.4971C68.4472 99.6756 68.3535 99.8372 68.2107 99.9464L62.2618 104.481C62.1458 104.57 62.0038 104.617 61.858 104.616Z" fill="#FFE7DA"/>
<path d="M76.7168 110.96C76.5707 110.963 76.4281 110.915 76.3131 110.825L67.4435 104.076C67.3007 103.967 67.207 103.806 67.1831 103.627C67.1591 103.449 67.2068 103.268 67.3157 103.125C67.4245 102.982 67.5857 102.888 67.7636 102.864C67.9416 102.84 68.1217 102.888 68.2645 102.997L77.1206 109.745C77.2336 109.83 77.3171 109.949 77.3592 110.084C77.4013 110.219 77.3999 110.364 77.3552 110.499C77.3106 110.633 77.2249 110.75 77.1103 110.833C76.9957 110.915 76.8581 110.96 76.7168 110.96Z" fill="#FFE7DA"/>
<path d="M58.9239 110.96C58.7827 110.96 58.645 110.915 58.5304 110.833C58.4159 110.75 58.3302 110.633 58.2855 110.499C58.2408 110.364 58.2395 110.219 58.2816 110.084C58.3237 109.949 58.4072 109.83 58.5202 109.745L67.3762 102.997C67.519 102.888 67.6992 102.84 67.8771 102.864C68.0551 102.888 68.2162 102.982 68.3251 103.125C68.434 103.268 68.4817 103.449 68.4577 103.627C68.4337 103.806 68.34 103.967 68.1972 104.076L59.3412 110.825C59.221 110.916 59.0741 110.963 58.9239 110.96Z" fill="#FFE7DA"/>
<path d="M21.4404 110.744L22.5171 112.094L17.5776 121.893L16.3798 120.435L18.2371 116.912L20.4444 112.688L15.8683 114.037L12.0729 115.212L10.875 113.754L21.4404 110.744Z" fill="#FFE7DA"/>
<path d="M26.0838 127.494L25.0878 128.628L19.4619 123.702L26.1915 116.13L31.6962 121.002L30.7002 122.136L26.4068 118.343L24.7513 120.111L28.1834 123.135L27.174 124.268L23.7554 121.245L21.7096 123.58L26.0838 127.494Z" fill="#FFE7DA"/>
<path d="M29.3138 125.578C29.6997 124.971 30.2055 124.45 30.7999 124.048C31.3943 123.645 32.0647 123.369 32.7697 123.236C33.4748 123.103 34.1995 123.116 34.8991 123.275C35.5987 123.435 36.2584 123.736 36.8374 124.16C37.8194 124.764 38.605 125.641 39.0986 126.684L38.1699 128.115C37.7665 127.003 37.0099 126.054 36.0164 125.416C35.6044 125.115 35.1353 124.902 34.6382 124.789C34.141 124.677 33.6261 124.667 33.1251 124.761C32.6241 124.855 32.1476 125.051 31.7248 125.337C31.302 125.622 30.9418 125.991 30.6663 126.421C30.3909 126.851 30.2059 127.333 30.1228 127.837C30.0397 128.342 30.0602 128.858 30.1831 129.354C30.306 129.85 30.5287 130.316 30.8374 130.722C31.1462 131.129 31.5346 131.468 31.9787 131.719C33.0283 132.44 34.2891 132.787 35.5588 132.704L34.6302 134.162C33.3817 134.139 32.1701 133.734 31.1577 133.001C30.5341 132.651 29.9887 132.176 29.5549 131.607C29.1211 131.037 28.8082 130.385 28.6355 129.689C28.4627 128.994 28.4338 128.27 28.5505 127.563C28.6671 126.856 28.9269 126.18 29.3138 125.578Z" fill="#FFE7DA"/>
<path d="M48.6545 130.207L44.711 139.48L43.2305 138.845L45.034 134.594L40.2291 132.542L38.4256 136.794L36.9451 136.159L40.8751 126.86L42.3691 127.494L40.8213 131.125L45.6262 133.177L47.174 129.559L48.6545 130.207Z" fill="#FFE7DA"/>
<path d="M48.7488 135.606C48.9783 134.584 49.5053 133.653 50.263 132.931C51.0207 132.21 51.9749 131.73 53.0047 131.553C54.0346 131.376 55.0936 131.51 56.0476 131.937C57.0016 132.365 57.8076 133.066 58.3634 133.954C58.9193 134.841 59.1998 135.874 59.1696 136.921C59.1394 137.968 58.7998 138.983 58.1938 139.837C57.5878 140.69 56.7427 141.344 55.7657 141.716C54.7887 142.087 53.7237 142.159 52.7057 141.923C52.0235 141.785 51.3763 141.51 50.8035 141.113C50.2308 140.717 49.7445 140.208 49.3743 139.617C49.0041 139.026 48.7578 138.365 48.6502 137.676C48.5427 136.986 48.5762 136.282 48.7488 135.606ZM57.403 137.658C57.5376 136.961 57.4649 136.24 57.194 135.584C56.9231 134.929 56.4659 134.368 55.8793 133.971C55.2928 133.574 54.6028 133.359 53.8952 133.352C53.1876 133.346 52.4938 133.548 51.9 133.934C51.3062 134.32 50.8387 134.872 50.5558 135.523C50.2728 136.173 50.1868 136.893 50.3086 137.592C50.4303 138.291 50.7544 138.938 51.2405 139.454C51.7266 139.97 52.3531 140.331 53.0422 140.492C53.5152 140.615 54.0085 140.638 54.4908 140.559C54.9731 140.481 55.4339 140.303 55.8439 140.036C56.2539 139.77 56.6042 139.421 56.8726 139.011C57.141 138.602 57.3216 138.141 57.403 137.658Z" fill="#FFE7DA"/>
<path d="M61.4946 133.163L63.0962 133.244L62.7328 140.87L68.278 133.487L70.0277 133.568L69.5566 143.637L67.9146 143.556L68.278 135.795L62.7194 143.313L60.9832 143.232L61.4946 133.163ZM63.5404 129.694L65.0343 129.762C65.0343 130.194 65.1958 131.003 65.8688 131.044C66.5418 131.084 66.8109 130.288 66.8244 129.856H68.3184C68.3216 130.183 68.2581 130.508 68.1319 130.809C68.0057 131.111 67.8194 131.384 67.5843 131.611C67.3493 131.838 67.0705 132.014 66.7651 132.129C66.4597 132.244 66.134 132.295 65.8082 132.28C65.4823 132.264 65.163 132.182 64.87 132.038C64.5769 131.894 64.3162 131.692 64.1039 131.444C63.8915 131.195 63.732 130.906 63.6351 130.593C63.5382 130.281 63.506 129.952 63.5404 129.627V129.694Z" fill="#FFE7DA"/>
<path d="M76.7571 141.707L77.7261 141.518C77.7266 138.644 77.438 135.777 76.8648 132.961L83.5943 131.611L85.2228 140.02L86.4207 139.79L87.0533 143.097L85.4651 143.407L85.1152 141.585L78.5875 142.854L78.9509 144.676L77.3627 144.987L76.7571 141.707ZM83.675 140.357L82.3291 133.433L78.7625 134.135C79.1515 136.468 79.354 138.828 79.3681 141.194L83.675 140.357Z" fill="#FFE7DA"/>
<path d="M95.1423 131.03C95.3031 131.461 95.3734 131.92 95.3487 132.379C95.324 132.838 95.2049 133.287 94.9989 133.698C94.7929 134.109 94.5043 134.472 94.1515 134.766C93.7986 135.059 93.3891 135.276 92.9485 135.403L90.0817 136.497L91.3065 139.736L89.7991 140.303L86.2324 130.855L90.647 129.168C91.0617 128.975 91.5115 128.871 91.9683 128.862C92.425 128.852 92.8788 128.938 93.301 129.113C93.7233 129.288 94.1048 129.548 94.4217 129.878C94.7386 130.208 94.984 130.601 95.1423 131.03ZM93.5945 131.651C93.4996 131.414 93.3574 131.199 93.1768 131.02C92.9962 130.84 92.7808 130.699 92.5439 130.605C92.3071 130.512 92.0537 130.468 91.7992 130.476C91.5448 130.484 91.2947 130.544 91.0642 130.652L88.2647 131.719L89.6107 135.106L92.4101 134.04C92.6473 133.966 92.8669 133.844 93.056 133.682C93.245 133.52 93.3994 133.322 93.5101 133.099C93.6207 132.876 93.6852 132.632 93.6997 132.384C93.7142 132.135 93.6785 131.886 93.5945 131.651Z" fill="#FFE7DA"/>
<path d="M97.2419 126.104L98.5879 125.335L107.404 131.935L105.762 132.853L103.756 131.246L99.5704 133.608L99.9068 136.159L98.2648 137.077L97.2419 126.104ZM102.531 130.153L98.8705 127.359L99.3685 132.002L102.531 130.153Z" fill="#FFE7DA"/>
<path d="M102.545 118.559L103.702 117.601C103.971 117.938 104.644 118.424 105.169 117.992C105.694 117.56 105.358 116.804 105.088 116.467L106.246 115.522C106.468 115.763 106.639 116.046 106.748 116.356C106.857 116.665 106.902 116.993 106.879 117.321C106.857 117.648 106.768 117.967 106.618 118.259C106.468 118.55 106.259 118.808 106.006 119.015C105.753 119.223 105.46 119.376 105.146 119.466C104.831 119.556 104.501 119.581 104.177 119.538C103.853 119.495 103.541 119.386 103.26 119.218C102.979 119.05 102.736 118.825 102.545 118.559ZM103.339 122.5L104.577 121.488L109.382 127.413L108.601 118.195L109.947 117.088L116.367 124.903L115.021 125.915L110.122 119.895L110.984 129.222L109.638 130.315L103.339 122.5Z" fill="#FFE7DA"/>
<path d="M121.872 114.334C123.42 115.684 123.218 117.425 121.872 119.031L118.965 122.325L111.441 115.576L114.133 112.485C115.573 110.852 116.892 110.555 118.238 111.743C118.619 112.044 118.871 112.48 118.944 112.961C119.016 113.443 118.904 113.934 118.628 114.334C119.059 113.905 119.642 113.664 120.25 113.664C120.858 113.664 121.441 113.905 121.872 114.334ZM113.581 115.441L115.452 117.101L116.906 115.441C117.767 114.456 118.009 113.768 117.242 113.079C116.475 112.391 115.815 112.904 115.089 113.714L113.581 115.441ZM120.728 115.59C119.961 114.915 119.153 115.077 118.278 116.062L116.529 118.046L118.844 120.111L120.593 118.127C121.468 117.128 121.509 116.292 120.728 115.59Z" fill="#FFE7DA"/>
<path d="M127.282 103.334C127.164 103.33 127.049 103.298 126.946 103.24C126.869 103.197 126.801 103.138 126.747 103.068C126.693 102.998 126.654 102.918 126.631 102.832C126.609 102.747 126.603 102.657 126.616 102.57C126.628 102.482 126.658 102.398 126.704 102.322C132.58 92.0916 135.672 80.4918 135.669 68.6854C135.665 56.879 132.568 45.2809 126.685 35.0537C120.803 24.8265 112.344 16.3296 102.155 10.4148C91.9656 4.49991 80.4051 1.37494 68.632 1.35312C56.8589 1.3313 45.287 4.41339 35.0762 10.2904C24.8654 16.1675 16.3745 24.633 10.4548 34.8383C4.53499 45.0436 1.39432 56.6302 1.34758 68.4365C1.30085 80.2428 4.34969 91.854 10.1885 102.106C10.2757 102.262 10.2977 102.446 10.2498 102.618C10.2018 102.79 10.0878 102.936 9.93275 103.024C9.85629 103.069 9.77154 103.098 9.68356 103.11C9.59559 103.121 9.5062 103.115 9.42075 103.091C9.3353 103.067 9.25555 103.026 9.18627 102.97C9.11698 102.915 9.05959 102.846 9.01754 102.767C3.06126 92.3095 -0.0489051 80.4651 -0.00116762 68.4216C0.0465698 56.3782 3.25054 44.5589 9.28953 34.1488C15.3285 23.7386 23.9903 15.1034 34.4065 9.10887C44.8227 3.11432 56.6274 -0.0289189 68.6369 -0.00573202C80.6465 0.0174548 92.4389 3.20625 102.832 9.24098C113.225 15.2757 121.854 23.9443 127.853 34.3777C133.852 44.8111 137.01 56.6426 137.012 68.6861C137.013 80.7297 133.858 92.562 127.861 102.997C127.803 103.099 127.718 103.184 127.617 103.243C127.515 103.302 127.4 103.334 127.282 103.334Z" fill="#FFE7DA"/>
<path d="M58.8393 116.63H59.4972L57.0603 119.469L59.4972 122.147H58.8393L56.646 119.603H53.7705V122.147H53.2344V116.63H53.7705V119.308H56.646L58.8393 116.63Z" fill="#FFE7DA"/>
<path d="M62.0023 116.63H68.1086V122.095H67.5345V117.174H62.5764V119.764C62.5764 121.37 62.1067 122.147 60.5671 122.147H60.28V121.473H60.541C61.6892 121.473 62.0284 120.878 62.0284 119.635L62.0023 116.63Z" fill="#FFE7DA"/>
<path d="M70.9401 122.147L72.1894 120.578H71.9895L68.8914 116.63H69.516L72.4142 120.29L75.3125 116.63H75.9371L71.5897 122.147H70.9401Z" fill="#FFE7DA"/>
<path d="M80.725 118.617C82.3377 118.617 82.9828 119.297 82.9828 120.369C82.9828 121.441 82.3377 122.147 80.725 122.147H76.72V116.63H82.3377V117.127H77.3382V118.617H80.725ZM80.725 121.676C81.9345 121.676 82.4184 121.179 82.4184 120.369C82.4184 119.558 81.9345 119.062 80.725 119.062H77.3382V121.676H80.725Z" fill="#FFE7DA"/>
<path d="M11.7364 107.491C12.0932 107.491 12.3824 107.201 12.3824 106.843C12.3824 106.486 12.0932 106.196 11.7364 106.196C11.3796 106.196 11.0903 106.486 11.0903 106.843C11.0903 107.201 11.3796 107.491 11.7364 107.491Z" fill="#FFE7DA"/>
<path d="M124.954 107.491C125.311 107.491 125.6 107.201 125.6 106.843C125.6 106.486 125.311 106.196 124.954 106.196C124.597 106.196 124.308 106.486 124.308 106.843C124.308 107.201 124.597 107.491 124.954 107.491Z" fill="#FFE7DA"/>
</g>
<defs>
<clipPath id="clip0_139_512">
<rect width="137" height="145" fill="white"/>
</clipPath>
</defs>
</svg>
