<svg width="45" height="46" viewBox="0 0 45 46" fill="none" xmlns="http://www.w3.org/2000/svg">
<path d="M23.85 3.89087C21.1678 3.69128 18.4749 4.08439 15.9545 5.04348C13.4341 6.00257 11.1453 7.50515 9.24364 9.44907C7.34198 11.393 5.87206 13.7327 4.93383 16.3091C3.99559 18.8855 3.61102 21.6382 3.80627 24.38C4.48127 34.5192 13.1438 42.1667 23.0813 42.1667H30C31.0313 42.1667 31.875 41.3042 31.875 40.25C31.875 39.1959 31.0313 38.3334 30 38.3334H23.1188C16.125 38.3334 9.71252 33.695 7.96877 26.7759C5.17502 15.6592 15.3 5.29004 26.175 8.16504C32.9625 9.92837 37.5 16.4834 37.5 23.6325V25.7409C37.5 27.255 36.1688 28.75 34.6875 28.75C33.2063 28.75 31.875 27.255 31.875 25.7409V23.345C31.875 18.5342 28.5375 14.2025 23.8875 13.5317C22.4081 13.3068 20.8975 13.4465 19.4815 13.939C18.0655 14.4316 16.7851 15.2628 15.7469 16.3634C14.7087 17.4641 13.9427 18.8023 13.5128 20.2667C13.0828 21.7312 13.0013 23.2794 13.275 24.7825C13.6039 26.5937 14.4368 28.2695 15.674 29.609C16.9111 30.9484 18.5 31.8946 20.25 32.3342C23.7 33.1584 26.9813 32.0275 29.1375 29.785C30.8063 32.1234 34.1438 33.35 37.2 32.1042C39.7125 31.0884 41.25 28.4625 41.25 25.7025V23.6134C41.25 13.4359 33.7688 4.58087 23.85 3.89087ZM22.5 28.75C19.3875 28.75 16.875 26.1817 16.875 23C16.875 19.8184 19.3875 17.25 22.5 17.25C25.6125 17.25 28.125 19.8184 28.125 23C28.125 26.1817 25.6125 28.75 22.5 28.75Z" fill="white"/>
</svg>
