<svg width="242" height="242" viewBox="0 0 242 242" fill="none" xmlns="http://www.w3.org/2000/svg">
<circle cx="121" cy="121" r="121" fill="#277782"/>
<path d="M104.018 82.0938C108.109 82.0938 111.425 78.7779 111.425 74.6875C111.425 70.5971 108.109 67.2812 104.018 67.2812C99.928 67.2812 96.6121 70.5971 96.6121 74.6875C96.6121 78.7779 99.928 82.0938 104.018 82.0938Z" fill="white"/>
<path d="M102.878 113.908C103.237 114.093 103.628 114.188 104.021 114.188C104.414 114.188 104.804 114.093 105.164 113.908C106.123 113.406 128.708 101.316 128.708 74.6875C128.708 61.0756 117.633 50 104.021 50C90.4089 50 79.3333 61.0756 79.3333 74.6875C79.3333 101.316 101.918 113.406 102.878 113.908ZM104.018 62.3438C110.824 62.3438 116.362 67.8816 116.362 74.6875C116.362 81.4934 110.824 87.0312 104.018 87.0312C97.2124 87.0312 91.6746 81.4934 91.6746 74.6875C91.6746 67.8816 97.2124 62.3438 104.018 62.3438Z" fill="white"/>
<path d="M145.725 122.6C145.379 122.748 145.033 122.822 144.688 122.822C143.75 122.822 142.861 122.303 142.441 121.39C141.873 120.156 142.392 118.699 143.626 118.131C144.663 117.637 145.7 117.267 146.761 116.897L144.614 86.4079L129.53 94.2832C127.703 98.3813 125.431 101.912 123.061 104.899V140.35C124.197 138.721 125.209 136.943 126.197 135.19L126.444 134.771C127.11 133.586 128.616 133.166 129.801 133.832C130.986 134.499 131.406 136.005 130.739 137.19L130.517 137.61C129.381 139.634 128.098 141.905 126.592 143.93C126.123 144.596 125.357 144.942 124.617 144.942C124.098 144.942 123.58 144.794 123.16 144.473C123.111 144.448 123.086 144.399 123.061 144.374V178.344L150.292 166.494L147.132 122.057C146.663 122.229 146.169 122.378 145.725 122.6ZM139.701 126.254C137.874 127.685 136.17 129.364 134.689 131.191C134.195 131.784 133.48 132.104 132.764 132.104C132.221 132.104 131.653 131.932 131.208 131.537C130.147 130.697 129.999 129.142 130.838 128.08C132.566 125.957 134.541 124.032 136.664 122.378C137.75 121.538 139.306 121.736 140.145 122.797C140.96 123.884 140.787 125.439 139.701 126.254Z" fill="white"/>
<path d="M191.989 175.678L180.929 131.043C178.534 129.167 173.202 125.093 172.486 124.624C171.35 123.859 171.029 122.328 171.77 121.192C172.511 120.057 174.016 119.736 175.177 120.477C175.67 120.798 177.25 121.983 179.003 123.34L173.498 101.146C173.35 100.504 172.93 99.9366 172.338 99.5909L149.551 86.3585L151.625 115.613C152.909 115.465 154.094 116.304 154.316 117.563C154.587 118.921 153.699 120.205 152.365 120.452C152.217 120.477 152.094 120.526 151.971 120.551L155.229 166.494L188.854 179.035C189.125 179.134 189.421 179.184 189.718 179.184C189.742 179.184 189.742 179.184 189.767 179.184C191.125 179.184 192.236 178.097 192.236 176.715C192.236 176.344 192.162 175.999 191.989 175.678ZM169.252 119.958C168.906 120.97 167.943 121.612 166.906 121.612C166.635 121.612 166.388 121.563 166.116 121.489C163.895 120.723 161.599 120.254 159.303 120.082C157.945 119.958 156.908 118.773 157.031 117.415C157.13 116.058 158.315 115.045 159.673 115.144C162.389 115.342 165.104 115.909 167.721 116.823C169.005 117.267 169.696 118.674 169.252 119.958Z" fill="white"/>
<path d="M104.027 119.119C102.842 119.119 101.657 118.847 100.62 118.304C100.299 118.131 97.8554 116.823 94.5967 114.305L94.0288 122.452C94.4238 122.674 94.7695 122.97 95.0163 123.39C95.8803 125.019 96.5964 126.698 97.3122 128.352C97.6085 129.043 97.9294 129.759 98.2504 130.475C98.7934 131.709 98.2504 133.166 97.016 133.734C96.6703 133.882 96.3247 133.956 96.0039 133.956C95.041 133.956 94.1523 133.413 93.7325 132.499C93.6091 132.228 93.4857 131.932 93.3623 131.66L90.8936 166.494L118.124 178.344V150.299C118.025 150.324 117.951 150.373 117.852 150.373C117.038 150.571 116.198 150.669 115.334 150.669C113.828 150.669 112.273 150.373 110.718 149.83C109.434 149.361 108.743 147.954 109.212 146.67C109.656 145.386 111.063 144.72 112.347 145.164C113.952 145.732 115.457 145.855 116.791 145.559C117.21 145.46 117.605 145.337 117.976 145.164C118.025 145.164 118.074 145.164 118.124 145.139V110.305C112.717 115.465 107.903 118.057 107.459 118.279C106.373 118.847 105.188 119.119 104.027 119.119ZM106.94 145.164C106.447 145.732 105.755 146.028 105.064 146.028C104.496 146.028 103.928 145.831 103.459 145.436C101.509 143.782 99.5835 141.733 97.88 139.535C97.0654 138.449 97.2628 136.894 98.3491 136.079C99.4353 135.24 100.966 135.437 101.805 136.523C103.287 138.449 104.965 140.251 106.669 141.683C107.706 142.572 107.829 144.127 106.94 145.164Z" fill="white"/>
<path d="M68.8477 99.5909C68.2551 99.9366 67.8354 100.504 67.6873 101.146L59.6392 133.536C60.7501 132.228 61.6635 131.092 61.8858 130.821C62.6758 129.71 64.231 129.463 65.342 130.277C66.4282 131.067 66.6752 132.623 65.8852 133.709C65.4654 134.302 63.8855 136.178 61.3426 139.214C59.6639 141.189 57.4419 143.831 56.9236 144.522L49.073 176.122C48.8507 177.011 49.147 177.949 49.8136 178.566C50.2826 178.986 50.8751 179.184 51.4676 179.184C51.7638 179.184 52.0601 179.134 52.3317 179.035L85.9561 166.494L89.1902 120.921C88.8445 121.094 88.4494 121.192 88.0545 121.192C87.5607 121.192 87.0669 121.044 86.6473 120.748C85.0673 119.662 83.3638 119.366 81.4135 119.884C80.1052 120.23 78.7473 119.415 78.4017 118.107C78.0561 116.773 78.8708 115.44 80.1792 115.095C83.5366 114.231 86.7214 114.798 89.4617 116.699C89.4864 116.699 89.4864 116.724 89.4864 116.724L89.9308 110.305C85.882 106.405 81.4877 101.023 78.4263 94.0362L68.8477 99.5909ZM75.6613 122.995C74.0073 124.303 72.2791 125.982 70.477 127.982C70.0079 128.525 69.3166 128.796 68.6502 128.796C68.0577 128.796 67.465 128.599 66.9961 128.179C65.9839 127.266 65.9099 125.71 66.7986 124.673C68.7736 122.476 70.7485 120.6 72.6001 119.119C73.6863 118.279 75.2417 118.477 76.0811 119.538C76.9204 120.6 76.7476 122.155 75.6613 122.995Z" fill="white"/>
</svg>
