<svg width="37" height="23" viewBox="0 0 37 23" fill="none" xmlns="http://www.w3.org/2000/svg">
<path fill-rule="evenodd" clip-rule="evenodd" d="M25.7511 22.4391C31.9156 22.4391 36.9129 17.4159 36.9129 11.2195C36.9129 5.02316 31.9156 0 25.7511 0C22.9882 0 20.4597 1.00904 18.5106 2.6805C16.5615 1.00909 14.0331 8.14021e-05 11.2702 8.14021e-05C5.10572 8.14021e-05 0.108398 5.02324 0.108398 11.2196C0.108398 17.416 5.10572 22.4392 11.2702 22.4392C14.0331 22.4392 16.5616 21.4301 18.5107 19.7587C20.4598 21.4301 22.9882 22.4391 25.7511 22.4391Z" fill="#ED0006"/>
<path fill-rule="evenodd" clip-rule="evenodd" d="M18.5105 19.759C20.9105 17.7012 22.4324 14.639 22.4324 11.2195C22.4324 7.80009 20.9105 4.73793 18.5105 2.68006C20.4596 1.00886 22.9878 0 25.7504 0C31.915 0 36.9123 5.02316 36.9123 11.2195C36.9123 17.4159 31.915 22.4391 25.7504 22.4391C22.9878 22.4391 20.4596 21.4302 18.5105 19.759Z" fill="#F9A000"/>
<path fill-rule="evenodd" clip-rule="evenodd" d="M18.511 19.7587C20.9109 17.7009 22.4327 14.6388 22.4327 11.2195C22.4327 7.80012 20.9109 4.73805 18.511 2.68018C16.1111 4.73805 14.5894 7.80012 14.5894 11.2195C14.5894 14.6388 16.1111 17.7009 18.511 19.7587Z" fill="#FF5E00"/>
</svg>
