<svg width="317" height="58" viewBox="0 0 317 58" fill="none" xmlns="http://www.w3.org/2000/svg">
<rect width="317" height="58" rx="29" fill="#19A2DC"/>
<path d="M16.4 36.36L17 32.88C17.1067 32.2667 17.36 31.7867 17.76 31.44C18.1867 31.0933 18.7067 30.92 19.32 30.92H22.88L23.52 25H18.2L18.8 21.52C18.9067 20.9067 19.16 20.4267 19.56 20.08C19.9867 19.7333 20.5067 19.56 21.12 19.56H24.08L25.04 10.48H30.48L29.52 19.56H33.16L34.12 10.48H39.56L38.6 19.56H44.12L43.52 23.04C43.4133 23.6533 43.1467 24.1333 42.72 24.48C42.32 24.8267 41.8133 25 41.2 25H38.04L37.44 30.92H42.28L41.72 34.4C41.6133 35.0133 41.3467 35.4933 40.92 35.84C40.52 36.1867 40.0133 36.36 39.4 36.36H36.84L35.92 45H30.48L31.4 36.36H27.76L26.84 45H21.4L22.32 36.36H16.4ZM28.32 30.92H31.96L32.6 25H28.96L28.32 30.92ZM50.8356 14.76C51.049 13.4533 51.609 12.4 52.5156 11.6C53.449 10.8 54.5823 10.4 55.9156 10.4H59.8356L65.2756 45H59.6356L58.7156 38.36H52.6756L51.7556 44.96H46.1156L50.8356 14.76ZM53.4356 32.96H57.9556L55.7156 17L53.4356 32.96ZM66.9188 10.44H72.3588V25H77.8387V10.44H83.2788V45H77.8387V30.44H72.3588V45H66.9188V10.44ZM86.3625 39.56H88.8025V15.64C88.8025 14.0667 89.2692 12.8133 90.2025 11.88C91.1625 10.92 92.4292 10.44 94.0025 10.44H105.123V45H84.5625L86.3625 39.56ZM99.6825 39.56V15.88H95.7625C95.3625 15.88 95.0025 16.04 94.6825 16.36C94.3892 16.6533 94.2425 17 94.2425 17.4V39.56H99.6825ZM107.7 10.48H118.86C120.433 10.48 121.687 10.96 122.62 11.92C123.58 12.8533 124.06 14.1067 124.06 15.68V26.44C124.06 28.0133 123.58 29.28 122.62 30.24C121.687 31.1733 120.433 31.64 118.86 31.64H113.14V45H107.7V10.48ZM113.14 15.88V26.2H117.1C117.527 26.2 117.887 26.0533 118.18 25.76C118.473 25.4667 118.62 25.1067 118.62 24.68V17.4C118.62 16.9733 118.473 16.6133 118.18 16.32C117.887 16.0267 117.527 15.88 117.1 15.88H113.14ZM126.403 10.44H141.363V15.88H131.843V25H139.163V27.24C139.163 28.2 138.87 28.9733 138.283 29.56C137.696 30.1467 136.923 30.44 135.963 30.44H131.843V39.56H141.363V45H126.403V10.44ZM148.812 10.44L148.612 30.32L153.772 13.48C154.065 12.5467 154.585 11.8133 155.332 11.28C156.105 10.72 156.972 10.44 157.932 10.44H160.372V45H154.932L155.132 25.12L149.972 41.96C149.679 42.8933 149.145 43.64 148.372 44.2C147.625 44.7333 146.772 45 145.812 45H143.372V10.44H148.812ZM156.852 3.4L155.932 5.24C155.639 5.77333 155.225 6.21333 154.692 6.56C154.185 6.88 153.625 7.04 153.012 7.04H147.732V3.4H156.852ZM169.2 10.48H180.36C181.933 10.48 183.187 10.96 184.12 11.92C185.08 12.8533 185.56 14.1067 185.56 15.68V24.28C185.56 24.7067 185.453 25.1333 185.24 25.56C185.053 25.96 184.787 26.32 184.44 26.64C184.12 26.96 183.747 27.2267 183.32 27.44C182.92 27.6267 182.52 27.72 182.12 27.72C182.52 27.72 182.92 27.8267 183.32 28.04C183.747 28.2267 184.12 28.48 184.44 28.8C184.787 29.12 185.053 29.4933 185.24 29.92C185.453 30.32 185.56 30.7333 185.56 31.16V39.8C185.56 41.3733 185.08 42.64 184.12 43.6C183.187 44.5333 181.933 45 180.36 45H169.2V10.48ZM174.64 30.44V39.56H178.6C179.027 39.56 179.387 39.4133 179.68 39.12C179.973 38.8267 180.12 38.4667 180.12 38.04V31.96C180.12 31.5333 179.973 31.1733 179.68 30.88C179.387 30.5867 179.027 30.44 178.6 30.44H174.64ZM178.6 25C179.027 25 179.387 24.8533 179.68 24.56C179.973 24.2667 180.12 23.9067 180.12 23.48V17.4C180.12 16.9733 179.973 16.6133 179.68 16.32C179.387 16.0267 179.027 15.88 178.6 15.88H174.64V25H178.6ZM187.903 16.24C187.903 14.4267 188.45 12.9733 189.543 11.88C190.636 10.7867 192.09 10.24 193.903 10.24H198.823C200.636 10.24 202.09 10.7867 203.183 11.88C204.276 12.9733 204.823 14.4267 204.823 16.24V39.2C204.823 41.0133 204.276 42.4667 203.183 43.56C202.09 44.6533 200.636 45.2 198.823 45.2H193.903C192.09 45.2 190.636 44.6533 189.543 43.56C188.45 42.4667 187.903 41.0133 187.903 39.2V16.24ZM194.863 39.76H197.863C198.29 39.76 198.65 39.6133 198.943 39.32C199.236 39.0267 199.383 38.6667 199.383 38.24V17.4C199.383 16.84 199.236 16.4133 198.943 16.12C198.65 15.8267 198.29 15.68 197.863 15.68H194.863C194.436 15.68 194.076 15.8267 193.783 16.12C193.49 16.4133 193.343 16.84 193.343 17.4V38.24C193.343 38.6667 193.49 39.0267 193.783 39.32C194.076 39.6133 194.436 39.76 194.863 39.76ZM207.638 10.48H218.797C220.371 10.48 221.624 10.96 222.558 11.92C223.518 12.8533 223.998 14.1067 223.998 15.68V26.44C223.998 28.0133 223.518 29.28 222.558 30.24C221.624 31.1733 220.371 31.64 218.797 31.64H213.078V45H207.638V10.48ZM213.078 15.88V26.2H217.037C217.464 26.2 217.824 26.0533 218.118 25.76C218.411 25.4667 218.557 25.1067 218.557 24.68V17.4C218.557 16.9733 218.411 16.6133 218.118 16.32C217.824 16.0267 217.464 15.88 217.037 15.88H213.078ZM226.2 16.24C226.2 14.4267 226.747 12.9733 227.84 11.88C228.933 10.7867 230.387 10.24 232.2 10.24H237.12C238.933 10.24 240.387 10.7867 241.48 11.88C242.573 12.9733 243.12 14.4267 243.12 16.24V39.2C243.12 41.0133 242.573 42.4667 241.48 43.56C240.387 44.6533 238.933 45.2 237.12 45.2H232.2C230.387 45.2 228.933 44.6533 227.84 43.56C226.747 42.4667 226.2 41.0133 226.2 39.2V16.24ZM233.16 39.76H236.16C236.587 39.76 236.947 39.6133 237.24 39.32C237.533 39.0267 237.68 38.6667 237.68 38.24V17.4C237.68 16.84 237.533 16.4133 237.24 16.12C236.947 15.8267 236.587 15.68 236.16 15.68H233.16C232.733 15.68 232.373 15.8267 232.08 16.12C231.787 16.4133 231.64 16.84 231.64 17.4V38.24C231.64 38.6667 231.787 39.0267 232.08 39.32C232.373 39.6133 232.733 39.76 233.16 39.76ZM245.934 10.44H251.374V25H256.854V10.44H262.294V45H256.854V30.44H251.374V45H245.934V10.44ZM264.684 16.24C264.684 14.4267 265.231 12.9733 266.324 11.88C267.418 10.7867 268.871 10.24 270.684 10.24H275.604C277.418 10.24 278.871 10.7867 279.964 11.88C281.058 12.9733 281.604 14.4267 281.604 16.24V39.2C281.604 41.0133 281.058 42.4667 279.964 43.56C278.871 44.6533 277.418 45.2 275.604 45.2H270.684C268.871 45.2 267.418 44.6533 266.324 43.56C265.231 42.4667 264.684 41.0133 264.684 39.2V16.24ZM271.644 39.76H274.644C275.071 39.76 275.431 39.6133 275.724 39.32C276.018 39.0267 276.164 38.6667 276.164 38.24V17.4C276.164 16.84 276.018 16.4133 275.724 16.12C275.431 15.8267 275.071 15.68 274.644 15.68H271.644C271.218 15.68 270.858 15.8267 270.564 16.12C270.271 16.4133 270.124 16.84 270.124 17.4V38.24C270.124 38.6667 270.271 39.0267 270.564 39.32C270.858 39.6133 271.218 39.76 271.644 39.76ZM284.419 10.48H295.579C297.152 10.48 298.405 10.96 299.339 11.92C300.299 12.8533 300.779 14.1067 300.779 15.68V24.28C300.779 24.7067 300.672 25.1333 300.459 25.56C300.272 25.96 300.005 26.32 299.659 26.64C299.339 26.96 298.965 27.2267 298.539 27.44C298.139 27.6267 297.739 27.72 297.339 27.72C297.739 27.72 298.139 27.8267 298.539 28.04C298.965 28.2267 299.339 28.48 299.659 28.8C300.005 29.12 300.272 29.4933 300.459 29.92C300.672 30.32 300.779 30.7333 300.779 31.16V39.8C300.779 41.3733 300.299 42.64 299.339 43.6C298.405 44.5333 297.152 45 295.579 45H284.419V10.48ZM289.859 30.44V39.56H293.819C294.245 39.56 294.605 39.4133 294.899 39.12C295.192 38.8267 295.339 38.4667 295.339 38.04V31.96C295.339 31.5333 295.192 31.1733 294.899 30.88C294.605 30.5867 294.245 30.44 293.819 30.44H289.859ZM293.819 25C294.245 25 294.605 24.8533 294.899 24.56C295.192 24.2667 295.339 23.9067 295.339 23.48V17.4C295.339 16.9733 295.192 16.6133 294.899 16.32C294.605 16.0267 294.245 15.88 293.819 15.88H289.859V25H293.819Z" fill="white"/>
</svg>
