<svg width="317" height="58" viewBox="0 0 317 58" fill="none" xmlns="http://www.w3.org/2000/svg">
<rect width="317" height="58" rx="29" fill="#19A2DC"/>
<path d="M19.4 36.36L20 32.88C20.1067 32.2667 20.36 31.7867 20.76 31.44C21.1867 31.0933 21.7067 30.92 22.32 30.92H25.88L26.52 25H21.2L21.8 21.52C21.9067 20.9067 22.16 20.4267 22.56 20.08C22.9867 19.7333 23.5067 19.56 24.12 19.56H27.08L28.04 10.48H33.48L32.52 19.56H36.16L37.12 10.48H42.56L41.6 19.56H47.12L46.52 23.04C46.4133 23.6533 46.1467 24.1333 45.72 24.48C45.32 24.8267 44.8133 25 44.2 25H41.04L40.44 30.92H45.28L44.72 34.4C44.6133 35.0133 44.3467 35.4933 43.92 35.84C43.52 36.1867 43.0133 36.36 42.4 36.36H39.84L38.92 45H33.48L34.4 36.36H30.76L29.84 45H24.4L25.32 36.36H19.4ZM31.32 30.92H34.96L35.6 25H31.96L31.32 30.92ZM49.7156 45V10.44H55.3556C56.3156 10.44 57.129 10.7333 57.7956 11.32C58.4623 11.88 58.8623 12.64 58.9956 13.6L61.9956 35.08L64.9556 13.6C65.089 12.64 65.489 11.88 66.1556 11.32C66.8223 10.7333 67.6356 10.44 68.5956 10.44H74.2356V45H68.5956L69.2356 18.36L64.8756 45H59.0756L54.7156 18.36L55.3556 45H49.7156ZM80.6481 14.76C80.8615 13.4533 81.4215 12.4 82.3281 11.6C83.2615 10.8 84.3948 10.4 85.7281 10.4H89.6481L95.0881 45H89.4481L88.5281 38.36H82.4881L81.5681 44.96H75.9281L80.6481 14.76ZM83.2481 32.96H87.7681L85.5281 17L83.2481 32.96ZM96.7313 10.48H107.891C109.465 10.48 110.718 10.96 111.651 11.92C112.611 12.8533 113.091 14.1067 113.091 15.68V26.44C113.091 28.0133 112.611 29.28 111.651 30.24C110.718 31.1733 109.465 31.64 107.891 31.64H102.171V45H96.7313V10.48ZM102.171 15.88V26.2H106.131C106.558 26.2 106.918 26.0533 107.211 25.76C107.505 25.4667 107.651 25.1067 107.651 24.68V17.4C107.651 16.9733 107.505 16.6133 107.211 16.32C106.918 16.0267 106.558 15.88 106.131 15.88H102.171ZM115.434 45V10.44H120.874L120.674 30.32L125.834 13.48C126.128 12.5467 126.648 11.8133 127.394 11.28C128.168 10.72 129.034 10.44 129.994 10.44H132.434V45H126.994L127.194 25.12L122.034 41.96C121.741 42.8933 121.208 43.64 120.434 44.2C119.688 44.7333 118.834 45 117.874 45H115.434ZM134.25 44.96L138.61 30.04C137.623 29.6933 136.85 29.1067 136.29 28.28C135.73 27.4267 135.45 26.4 135.45 25.2V15.68C135.45 14.1067 135.917 12.8533 136.85 11.92C137.81 10.96 139.077 10.48 140.65 10.48H151.81V44.96H146.37V30.4H144.37L140.69 43.04C140.53 43.6267 140.21 44.0933 139.73 44.44C139.277 44.7867 138.743 44.96 138.13 44.96H134.25ZM140.89 17.88V23C140.89 23.6133 141.063 24.1067 141.41 24.48C141.783 24.8267 142.277 25 142.89 25H146.37V15.88H142.89C142.277 15.88 141.783 16.0667 141.41 16.44C141.063 16.7867 140.89 17.2667 140.89 17.88ZM159.022 45L160.822 39.56H161.142C161.569 39.56 161.929 39.4133 162.222 39.12C162.515 38.8267 162.662 38.4667 162.662 38.04V15.64C162.662 14.0667 163.129 12.8133 164.062 11.88C165.022 10.92 166.289 10.44 167.862 10.44H178.622V45H173.182V15.88H169.622C169.195 15.88 168.835 16.0267 168.542 16.32C168.249 16.6133 168.102 16.9733 168.102 17.4V40.2C168.102 41.64 167.662 42.8 166.782 43.68C165.902 44.56 164.742 45 163.302 45H159.022ZM181.809 10.44H187.249V23.48C187.249 23.9067 187.396 24.2667 187.689 24.56C187.983 24.8533 188.343 25 188.769 25H192.729V10.44H198.169V39.8C198.169 41.3733 197.689 42.64 196.729 43.6C195.796 44.5333 194.543 45 192.969 45H187.009C185.436 45 184.169 44.5333 183.209 43.6C182.276 42.64 181.809 41.3733 181.809 39.8V34.92L187.249 36.76V38.04C187.249 38.4667 187.396 38.8267 187.689 39.12C187.983 39.4133 188.343 39.56 188.769 39.56H191.209C191.636 39.56 191.996 39.4133 192.289 39.12C192.583 38.8267 192.729 38.4667 192.729 38.04V30.44H187.009C185.436 30.44 184.169 29.9733 183.209 29.04C182.276 28.08 181.809 26.8133 181.809 25.24V10.44ZM201.075 39.8V10.44H206.475V38.04C206.475 38.4667 206.622 38.8267 206.915 39.12C207.208 39.4133 207.568 39.56 207.995 39.56H210.515V10.44H215.915V39.56H219.955V10.44H225.355V45H206.275C204.702 45 203.435 44.5333 202.475 43.6C201.542 42.64 201.075 41.3733 201.075 39.8ZM227.747 10.44H242.707V15.88H233.187V25H240.507V27.24C240.507 28.2 240.214 28.9733 239.627 29.56C239.04 30.1467 238.267 30.44 237.307 30.44H233.187V39.56H242.707V45H227.747V10.44ZM244.716 10.48H255.876C257.449 10.48 258.702 10.96 259.636 11.92C260.596 12.8533 261.076 14.1067 261.076 15.68V24.28C261.076 24.7067 260.969 25.1333 260.756 25.56C260.569 25.96 260.302 26.32 259.956 26.64C259.636 26.96 259.262 27.2267 258.836 27.44C258.436 27.6267 258.036 27.72 257.636 27.72C258.036 27.72 258.436 27.8267 258.836 28.04C259.262 28.2267 259.636 28.48 259.956 28.8C260.302 29.12 260.569 29.4933 260.756 29.92C260.969 30.32 261.076 30.7333 261.076 31.16V39.8C261.076 41.3733 260.596 42.64 259.636 43.6C258.702 44.5333 257.449 45 255.876 45H244.716V10.48ZM250.156 30.44V39.56H254.116C254.542 39.56 254.902 39.4133 255.196 39.12C255.489 38.8267 255.636 38.4667 255.636 38.04V31.96C255.636 31.5333 255.489 31.1733 255.196 30.88C254.902 30.5867 254.542 30.44 254.116 30.44H250.156ZM254.116 25C254.542 25 254.902 24.8533 255.196 24.56C255.489 24.2667 255.636 23.9067 255.636 23.48V17.4C255.636 16.9733 255.489 16.6133 255.196 16.32C254.902 16.0267 254.542 15.88 254.116 15.88H250.156V25H254.116ZM266.836 14.76C267.049 13.4533 267.609 12.4 268.516 11.6C269.449 10.8 270.582 10.4 271.916 10.4H275.836L281.276 45H275.636L274.716 38.36H268.676L267.756 44.96H262.116L266.836 14.76ZM269.436 32.96H273.956L271.716 17L269.436 32.96ZM286.049 10.44V24.68C286.049 25.1067 286.196 25.4667 286.489 25.76C286.783 26.0533 287.143 26.2 287.569 26.2H291.529V10.44H296.969V45H291.529V31.64H286.609C284.796 31.64 283.343 31.0933 282.249 30C281.156 28.9067 280.609 27.4533 280.609 25.64V10.44H286.049Z" fill="white"/>
</svg>
