<svg width="317" height="58" viewBox="0 0 317 58" fill="none" xmlns="http://www.w3.org/2000/svg">
<rect width="317" height="58" rx="29" fill="#19A2DC"/>
<path d="M13.4 36.36L14 32.88C14.1067 32.2667 14.36 31.7867 14.76 31.44C15.1867 31.0933 15.7067 30.92 16.32 30.92H19.88L20.52 25H15.2L15.8 21.52C15.9067 20.9067 16.16 20.4267 16.56 20.08C16.9867 19.7333 17.5067 19.56 18.12 19.56H21.08L22.04 10.48H27.48L26.52 19.56H30.16L31.12 10.48H36.56L35.6 19.56H41.12L40.52 23.04C40.4133 23.6533 40.1467 24.1333 39.72 24.48C39.32 24.8267 38.8133 25 38.2 25H35.04L34.44 30.92H39.28L38.72 34.4C38.6133 35.0133 38.3467 35.4933 37.92 35.84C37.52 36.1867 37.0133 36.36 36.4 36.36H33.84L32.92 45H27.48L28.4 36.36H24.76L23.84 45H18.4L19.32 36.36H13.4ZM25.32 30.92H28.96L29.6 25H25.96L25.32 30.92ZM43.7156 31.56C43.7156 31.1333 43.8356 30.6933 44.0756 30.24C44.3156 29.7867 44.6223 29.3733 44.9956 29C45.369 28.6267 45.7823 28.32 46.2356 28.08C46.689 27.84 47.129 27.72 47.5556 27.72C47.129 27.72 46.689 27.6 46.2356 27.36C45.7823 27.12 45.369 26.8133 44.9956 26.44C44.6223 26.0667 44.3156 25.6533 44.0756 25.2C43.8356 24.7467 43.7156 24.3067 43.7156 23.88V10.44H45.9556C46.9156 10.44 47.689 10.7333 48.2756 11.32C48.8623 11.9067 49.1556 12.68 49.1556 13.64V23.48C49.1556 23.9067 49.3023 24.2667 49.5956 24.56C49.889 24.8533 50.249 25 50.6756 25H52.8356V10.44H58.2756V25H60.3956C60.8223 25 61.1823 24.8533 61.4756 24.56C61.769 24.2667 61.9156 23.9067 61.9156 23.48V13.64C61.9156 12.68 62.209 11.9067 62.7956 11.32C63.3823 10.7333 64.1556 10.44 65.1156 10.44H67.3556V23.88C67.3556 24.3067 67.2623 24.7467 67.0756 25.2C66.889 25.6533 66.6356 26.0667 66.3156 26.44C65.9956 26.8133 65.6223 27.12 65.1956 27.36C64.7956 27.6 64.369 27.72 63.9156 27.72C64.369 27.72 64.7956 27.84 65.1956 28.08C65.6223 28.32 65.9956 28.6267 66.3156 29C66.6356 29.3733 66.889 29.7867 67.0756 30.24C67.2623 30.6933 67.3556 31.1333 67.3556 31.56V45H65.1156C64.1556 45 63.3823 44.7067 62.7956 44.12C62.209 43.5333 61.9156 42.76 61.9156 41.8V31.96C61.9156 31.5333 61.769 31.1733 61.4756 30.88C61.1823 30.5867 60.8223 30.44 60.3956 30.44H58.2756V45H52.8356V30.44H50.6756C50.249 30.44 49.889 30.5867 49.5956 30.88C49.3023 31.1733 49.1556 31.5333 49.1556 31.96V41.8C49.1556 42.76 48.8623 43.5333 48.2756 44.12C47.689 44.7067 46.9156 45 45.9556 45H43.7156V31.56ZM73.8981 14.76C74.1115 13.4533 74.6715 12.4 75.5781 11.6C76.5115 10.8 77.6448 10.4 78.9781 10.4H82.8981L88.3381 45H82.6981L81.7781 38.36H75.7381L74.8181 44.96H69.1781L73.8981 14.76ZM76.4981 32.96H81.0181L78.7781 17L76.4981 32.96ZM89.9813 10.44H95.4213V25H100.901V10.44H106.341V45H100.901V30.44H95.4213V45H89.9813V10.44ZM108.919 10.44H114.359V25H119.839V10.44H125.279V45H119.839V30.44H114.359V45H108.919V10.44ZM131.695 14.76C131.908 13.4533 132.468 12.4 133.375 11.6C134.308 10.8 135.442 10.4 136.775 10.4H140.695L146.135 45H140.495L139.575 38.36H133.535L132.615 44.96H126.975L131.695 14.76ZM134.295 32.96H138.815L136.575 17L134.295 32.96ZM152.741 45L154.541 39.56H154.861C155.287 39.56 155.647 39.4133 155.941 39.12C156.234 38.8267 156.381 38.4667 156.381 38.04V15.64C156.381 14.0667 156.847 12.8133 157.781 11.88C158.741 10.92 160.007 10.44 161.581 10.44H172.341V45H166.901V15.88H163.341C162.914 15.88 162.554 16.0267 162.261 16.32C161.967 16.6133 161.821 16.9733 161.821 17.4V40.2C161.821 41.64 161.381 42.8 160.501 43.68C159.621 44.56 158.461 45 157.021 45H152.741ZM174.919 10.44H189.879V15.88H180.359V25H187.679V27.24C187.679 28.2 187.385 28.9733 186.799 29.56C186.212 30.1467 185.439 30.44 184.479 30.44H180.359V39.56H189.879V45H174.919V10.44ZM191.888 10.48H203.448C204.888 10.48 206.048 10.92 206.928 11.8C207.808 12.68 208.248 13.84 208.248 15.28V21.36L202.807 19.52V17.36C202.807 16.96 202.661 16.6133 202.368 16.32C202.101 16.0267 201.768 15.88 201.368 15.88H197.328V25H203.047C204.621 25 205.874 25.48 206.808 26.44C207.768 27.3733 208.248 28.6267 208.248 30.2V39.8C208.248 41.3733 207.768 42.64 206.808 43.6C205.874 44.5333 204.621 45 203.047 45H191.888V10.48ZM197.328 30.44V39.56H201.287C201.714 39.56 202.074 39.4133 202.368 39.12C202.661 38.8267 202.807 38.4667 202.807 38.04V31.96C202.807 31.5333 202.661 31.1733 202.368 30.88C202.074 30.5867 201.714 30.44 201.287 30.44H197.328ZM211.059 10.44H226.019V15.88H216.499V25H223.819V27.24C223.819 28.2 223.526 28.9733 222.939 29.56C222.353 30.1467 221.579 30.44 220.619 30.44H216.499V39.56H226.019V45H211.059V10.44ZM229.003 39.56H231.443V15.64C231.443 14.0667 231.91 12.8133 232.843 11.88C233.803 10.92 235.07 10.44 236.643 10.44H247.763V45H227.203L229.003 39.56ZM242.323 39.56V15.88H238.403C238.003 15.88 237.643 16.04 237.323 16.36C237.03 16.6533 236.883 17 236.883 17.4V39.56H242.323ZM250.341 10.44H265.301V15.88H255.781V25H263.101V27.24C263.101 28.2 262.807 28.9733 262.221 29.56C261.634 30.1467 260.861 30.44 259.901 30.44H255.781V39.56H265.301V45H250.341V10.44ZM267.309 10.48H278.469C280.043 10.48 281.296 10.96 282.229 11.92C283.189 12.8533 283.669 14.1067 283.669 15.68V24.28C283.669 24.7067 283.563 25.1333 283.349 25.56C283.163 25.96 282.896 26.32 282.549 26.64C282.229 26.96 281.856 27.2267 281.429 27.44C281.029 27.6267 280.629 27.72 280.229 27.72C280.629 27.72 281.029 27.8267 281.429 28.04C281.856 28.2267 282.229 28.48 282.549 28.8C282.896 29.12 283.163 29.4933 283.349 29.92C283.563 30.32 283.669 30.7333 283.669 31.16V39.8C283.669 41.3733 283.189 42.64 282.229 43.6C281.296 44.5333 280.043 45 278.469 45H267.309V10.48ZM272.749 30.44V39.56H276.709C277.136 39.56 277.496 39.4133 277.789 39.12C278.083 38.8267 278.229 38.4667 278.229 38.04V31.96C278.229 31.5333 278.083 31.1733 277.789 30.88C277.496 30.5867 277.136 30.44 276.709 30.44H272.749ZM276.709 25C277.136 25 277.496 24.8533 277.789 24.56C278.083 24.2667 278.229 23.9067 278.229 23.48V17.4C278.229 16.9733 278.083 16.6133 277.789 16.32C277.496 16.0267 277.136 15.88 276.709 15.88H272.749V25H276.709ZM289.429 14.76C289.643 13.4533 290.203 12.4 291.109 11.6C292.043 10.8 293.176 10.4 294.509 10.4H298.429L303.869 45H298.229L297.309 38.36H291.269L290.349 44.96H284.709L289.429 14.76ZM292.029 32.96H296.549L294.309 17L292.029 32.96Z" fill="white"/>
</svg>
