<svg width="242" height="242" viewBox="0 0 242 242" fill="none" xmlns="http://www.w3.org/2000/svg">
<circle cx="121" cy="121" r="121" fill="#277782"/>
<path d="M138.331 117.146L140.211 128.25C140.417 129.36 141.21 130.237 142.268 130.558C142.532 130.645 142.826 130.704 143.119 130.704C143.913 130.704 144.676 130.383 145.235 129.769L153.048 121.617L148.495 120.244L138.331 117.146Z" fill="white"/>
<path d="M168.529 34.662L179.75 38.0805C180.485 38.2851 181.16 38.6064 181.777 38.9863C181.689 37.35 181.219 35.6845 180.426 34.1944C178.928 31.448 176.46 29.4319 173.464 28.5261C172.348 28.1753 171.202 28 170.056 28C166.267 28 162.86 29.7532 160.715 32.6166C161.449 32.6166 162.155 32.7334 162.86 32.9672L168.529 34.662Z" fill="white"/>
<path d="M137.221 109.821C137.588 110.506 138.214 111.017 138.958 111.242L144.589 112.945L166.81 40.2602L161.179 38.5576C159.627 38.0953 157.984 38.957 157.514 40.5036L137.003 107.595C136.777 108.337 136.854 109.139 137.221 109.821Z" fill="white"/>
<path d="M156.678 116.467C157.937 116.467 159.102 115.656 159.486 114.395L179.997 47.3032C180.224 46.5613 180.146 45.7595 179.779 45.0775C179.412 44.3927 178.787 43.882 178.042 43.6566L172.43 41.9595L150.209 114.644L155.822 116.341C156.107 116.427 156.394 116.467 156.678 116.467Z" fill="white"/>
<path d="M191.86 171.962L169.387 102.097L164.905 116.758L164.707 117.097C164.519 117.52 164.304 117.919 164.059 118.296C163.957 118.453 163.497 119.115 163.497 119.115L163.016 119.634L149.512 133.801C147.854 135.539 145.524 136.535 143.118 136.535C142.241 136.535 141.375 136.406 140.543 136.152C137.339 135.182 134.994 132.531 134.43 129.241L131.038 109.404L131.031 108.751C131.005 108.232 131.036 107.667 131.127 107.096L131.13 106.751L140.395 76.4307H83.5329C82.2506 76.4307 81.1161 77.2581 80.7317 78.4737L51.1358 171.974C50.8547 172.864 51.0153 173.831 51.569 174.582C52.1212 175.332 53.0018 175.774 53.937 175.774H189.062C190 175.774 190.882 175.329 191.434 174.576C191.988 173.823 192.146 172.85 191.86 171.962ZM84.0579 126.103H121.5C123.122 126.103 124.437 127.409 124.437 129.024C124.437 130.639 123.122 131.946 121.5 131.946H84.0579C82.4357 131.946 81.1204 130.639 81.1204 129.024C81.1204 127.409 82.4357 126.103 84.0579 126.103ZM79.8926 140.712H163.106C164.729 140.712 166.044 142.019 166.044 143.634C166.044 145.249 164.729 146.556 163.106 146.556H79.8926C78.2704 146.556 76.9551 145.249 76.9551 143.634C76.9551 142.019 78.2704 140.712 79.8926 140.712ZM167.272 161.165H75.7273C74.1051 161.165 72.7898 159.858 72.7898 158.243C72.7898 156.628 74.1051 155.321 75.7273 155.321H167.272C168.894 155.321 170.209 156.628 170.209 158.243C170.209 159.858 168.894 161.165 167.272 161.165Z" fill="white"/>
</svg>
