<svg width="242" height="242" viewBox="0 0 242 242" fill="none" xmlns="http://www.w3.org/2000/svg">
<circle cx="121" cy="121" r="121" fill="#277782"/>
<path fill-rule="evenodd" clip-rule="evenodd" d="M183.328 181.64H128.878C128.558 181.766 128.214 181.836 127.86 181.836H112.572C112.218 181.836 111.875 181.766 111.554 181.64H58.6721C57.1041 181.64 55.7321 180.268 55.7321 178.7C55.7321 177.132 57.1041 175.76 58.6721 175.76H109.632V151.848H76.3121C75.5281 151.848 74.9401 151.652 74.3521 151.064L61.2201 138.716C58.8681 136.56 57.6921 133.62 57.6921 130.484C57.6921 127.348 59.0641 124.408 61.2201 122.252L74.3521 109.904C74.9401 109.316 75.5281 109.12 76.3121 109.12H109.632V103.044H101.988C100.42 103.044 99.0481 101.672 99.0481 100.104V63.452C99.0481 61.884 100.42 60.512 101.988 60.512H109.632V55.024C109.632 49.144 114.336 44.44 120.216 44.44C122.96 44.44 125.704 45.616 127.664 47.576C129.624 49.536 130.8 52.28 130.8 55.024V60.512H164.904C165.688 60.512 166.276 60.708 166.864 61.296L179.996 73.644C182.152 75.604 183.524 78.544 183.524 81.68C183.524 84.816 182.152 87.756 179.996 89.912L166.864 102.26C166.276 102.848 165.688 103.044 164.904 103.044H130.8V109.12H139.424C140.992 109.512 142.168 110.688 142.168 112.452V149.104C142.168 150.672 140.796 152.044 139.228 152.044H130.8V175.76H183.524C185.092 175.76 186.464 177.132 186.464 178.7C186.464 180.268 185.092 181.64 183.328 181.64ZM124.92 175.76H115.512V151.848H124.92V175.76ZM115.512 109.12H124.92V102.848H115.512V109.12ZM115.512 60.512H124.92V55.024C124.92 53.848 124.332 52.476 123.548 51.692C122.568 50.712 121.392 50.32 120.216 50.32C117.668 50.32 115.512 52.476 115.512 55.024V60.512Z" fill="white"/>
</svg>
