<svg width="60" height="60" viewBox="0 0 60 60" fill="none" xmlns="http://www.w3.org/2000/svg">
<g opacity="0.5">
<path d="M30.0002 0C13.4584 0 0.000976562 13.4589 0.000976562 29.9998C0.000976562 46.5426 13.4584 60 30.0002 60C46.5421 60 59.999 46.5426 59.999 29.9998C59.999 13.4589 46.5421 0 30.0002 0ZM24.0249 30.3407L35.5471 41.8644C35.6702 41.9864 35.7378 42.1498 35.7378 42.3235C35.7378 42.4995 35.6702 42.662 35.5471 42.7821L34.4577 43.874C34.214 44.1176 33.7807 44.1186 33.5375 43.874L20.1457 30.4827C20.0232 30.3592 19.9566 30.1933 19.9585 30.0046C19.9566 29.8252 20.0232 29.6608 20.1453 29.5363L33.5579 16.1246C33.68 16.0025 33.8424 15.9349 34.017 15.9349C34.1902 15.9349 34.356 16.0025 34.4766 16.1246L35.5671 17.2164C35.8224 17.4669 35.8224 17.8813 35.5675 18.1342L24.0249 29.6783C23.8415 29.8611 23.8415 30.1568 24.0249 30.3407Z" fill="#19A2DC"/>
</g>
</svg>
