<svg width="45" height="45" viewBox="0 0 45 45" fill="none" xmlns="http://www.w3.org/2000/svg">
<g filter="url(#filter0_d_71_62)">
<path d="M29.6646 10.1104L11.9346 16.9474C10.7246 17.4334 10.7316 18.1084 11.7126 18.4094L16.2646 19.8294L26.7966 13.1844C27.2946 12.8814 27.7496 13.0444 27.3756 13.3764L18.8426 21.0774H18.8406L18.8426 21.0784L18.5286 25.7704C18.9886 25.7704 19.1916 25.5594 19.4496 25.3104L21.6606 23.1604L26.2596 26.5574C27.1076 27.0244 27.7166 26.7844 27.9276 25.7724L30.9466 11.5444C31.2556 10.3054 30.4736 9.74437 29.6646 10.1104Z" fill="white"/>
<circle cx="22.5" cy="18.5" r="17" stroke="white" stroke-width="3"/>
</g>
<defs>
<filter id="filter0_d_71_62" x="0" y="0" width="45" height="45" filterUnits="userSpaceOnUse" color-interpolation-filters="sRGB">
<feFlood flood-opacity="0" result="BackgroundImageFix"/>
<feColorMatrix in="SourceAlpha" type="matrix" values="0 0 0 0 0 0 0 0 0 0 0 0 0 0 0 0 0 0 127 0" result="hardAlpha"/>
<feOffset dy="4"/>
<feGaussianBlur stdDeviation="2"/>
<feComposite in2="hardAlpha" operator="out"/>
<feColorMatrix type="matrix" values="0 0 0 0 0 0 0 0 0 0 0 0 0 0 0 0 0 0 0.25 0"/>
<feBlend mode="normal" in2="BackgroundImageFix" result="effect1_dropShadow_71_62"/>
<feBlend mode="normal" in="SourceGraphic" in2="effect1_dropShadow_71_62" result="shape"/>
</filter>
</defs>
</svg>
