<svg width="40" height="14" viewBox="0 0 40 14" fill="none" xmlns="http://www.w3.org/2000/svg">
<path fill-rule="evenodd" clip-rule="evenodd" d="M9.79484 13.6648H6.40425L3.86173 3.50716C3.74105 3.03991 3.48481 2.62683 3.1079 2.43214C2.16726 1.94288 1.13075 1.55351 0 1.35713V0.966055H5.46196C6.2158 0.966055 6.78117 1.55351 6.8754 2.23576L8.1946 9.56282L11.5835 0.966055H14.8799L9.79484 13.6648ZM16.7646 13.6648H13.5624L16.1992 0.966055H19.4013L16.7646 13.6648ZM23.5441 4.48367C23.6383 3.79972 24.2037 3.40865 24.8633 3.40865C25.8998 3.31046 27.0289 3.50684 27.9712 3.99441L28.5366 1.2603C27.5943 0.869233 26.5578 0.672852 25.6171 0.672852C22.5092 0.672852 20.2477 2.43182 20.2477 4.87304C20.2477 6.7302 21.8496 7.70534 22.9804 8.29279C24.2037 8.87855 24.6749 9.26962 24.5806 9.85538C24.5806 10.734 23.6383 11.1251 22.6977 11.1251C21.567 11.1251 20.4362 10.8322 19.4013 10.3429L18.836 13.0787C19.9667 13.5663 21.19 13.7627 22.3208 13.7627C25.8056 13.8592 27.9712 12.1019 27.9712 9.46431C27.9712 6.14275 23.5441 5.94806 23.5441 4.48367ZM39.1774 13.6648L36.6349 0.966055H33.9039C33.3386 0.966055 32.7732 1.35713 32.5847 1.94288L27.8766 13.6648H31.1729L31.8309 11.8094H35.8811L36.258 13.6648H39.1774ZM34.3754 4.38516L35.3161 9.17111H32.6793L34.3754 4.38516Z" fill="#FCFDFF"/>
</svg>
