<svg width="45" height="50" viewBox="0 0 45 50" fill="none" xmlns="http://www.w3.org/2000/svg">
<g filter="url(#filter0_d_3_134)">
<path fill-rule="evenodd" clip-rule="evenodd" d="M35.1734 10.0311C33.5199 8.34004 31.5555 7.00002 29.3934 6.08815C27.2313 5.17629 24.914 4.71059 22.5751 4.71786C12.7594 4.71786 4.76877 12.8452 4.76478 22.8366C4.76044 26.0181 5.58084 29.144 7.14247 31.896L4.61548 41.2819L14.0568 38.7624C16.6702 40.2096 19.5957 40.9671 22.5679 40.966H22.5751C32.3901 40.966 40.3799 32.8379 40.3847 22.8472C40.3906 20.4645 39.9329 18.1044 39.0383 15.9041C38.1436 13.7039 36.8298 11.7075 35.1734 10.0311ZM22.5751 37.9079H22.5687C19.9191 37.9087 17.3176 37.1838 15.0348 35.8087L14.4943 35.4822L8.89181 36.9774L10.3872 31.4202L10.0351 30.8489C8.55359 28.4512 7.76863 25.6726 7.77163 22.8366C7.77163 14.5338 14.4153 7.77846 22.5807 7.77846C26.4977 7.77131 30.2572 9.3549 33.0321 12.1809C35.807 15.007 37.3702 18.844 37.3778 22.8481C37.3746 31.1517 30.7342 37.9079 22.5751 37.9079ZM30.6942 26.6293C30.2495 26.4024 28.0595 25.3072 27.6539 25.1562C27.2483 25.0052 26.9489 24.9293 26.6526 25.3831C26.3564 25.8368 25.5029 26.8521 25.2434 27.1582C24.9839 27.4643 24.7245 27.4977 24.2797 27.2708C23.835 27.0439 22.4003 26.5665 20.7004 25.0239C19.3774 23.8234 18.4848 22.3412 18.2253 21.8883C17.9658 21.4353 18.1974 21.1896 18.4201 20.9644C18.6205 20.7611 18.8649 20.4355 19.0876 20.1711C19.3104 19.9066 19.3846 19.7173 19.5323 19.4153C19.68 19.1133 19.6066 18.8489 19.4956 18.6228C19.3846 18.3967 18.4944 16.1678 18.1239 15.261C17.7622 14.3779 17.3958 14.4979 17.1227 14.484C16.8632 14.471 16.5638 14.4677 16.2692 14.4677C16.044 14.4737 15.8224 14.5271 15.6182 14.6246C15.4141 14.722 15.2318 14.8614 15.0828 15.0341C14.6748 15.4879 13.525 16.5848 13.525 18.8113C13.525 21.0378 15.1219 23.1925 15.3422 23.4945C15.5626 23.7964 18.48 28.3694 22.944 30.3306C23.7729 30.6935 24.6199 31.0117 25.4814 31.2839C26.5473 31.6283 27.5173 31.5802 28.2838 31.4635C29.1389 31.3337 30.9186 30.3682 31.2883 29.3104C31.6579 28.2527 31.6587 27.3467 31.5478 27.1582C31.4368 26.9697 31.1398 26.8554 30.6942 26.6293Z" fill="white"/>
</g>
<defs>
<filter id="filter0_d_3_134" x="-4" y="0" width="53" height="54" filterUnits="userSpaceOnUse" color-interpolation-filters="sRGB">
<feFlood flood-opacity="0" result="BackgroundImageFix"/>
<feColorMatrix in="SourceAlpha" type="matrix" values="0 0 0 0 0 0 0 0 0 0 0 0 0 0 0 0 0 0 127 0" result="hardAlpha"/>
<feOffset dy="4"/>
<feGaussianBlur stdDeviation="2"/>
<feComposite in2="hardAlpha" operator="out"/>
<feColorMatrix type="matrix" values="0 0 0 0 0 0 0 0 0 0 0 0 0 0 0 0 0 0 0.25 0"/>
<feBlend mode="normal" in2="BackgroundImageFix" result="effect1_dropShadow_3_134"/>
<feBlend mode="normal" in="SourceGraphic" in2="effect1_dropShadow_3_134" result="shape"/>
</filter>
</defs>
</svg>
